<?xml version="1.0" standalone="no"?>
<!DOCTYPE svg PUBLIC "-//W3C//DTD SVG 20010904//EN"
 "http://www.w3.org/TR/2001/REC-SVG-20010904/DTD/svg10.dtd">
<svg version="1.0" xmlns="http://www.w3.org/2000/svg"
 width="278.000000pt" height="268.000000pt" viewBox="0 0 278.000000 268.000000"
 preserveAspectRatio="xMidYMid meet">

<g transform="translate(0.000000,268.000000) scale(0.100000,-0.100000)"
fill="#000000" stroke="none">
<path d="M0 1340 l0 -1340 1390 0 1390 0 0 1340 0 1340 -1390 0 -1390 0 0
-1340z m1688 796 c338 -94 607 -361 708 -701 23 -76 27 -114 31 -250 4 -138 2
-172 -16 -247 -90 -380 -359 -662 -729 -766 -90 -25 -111 -27 -277 -26 -166 0
-187 3 -270 28 -361 109 -617 370 -717 734 -31 112 -31 382 0 494 94 342 347
615 663 718 134 43 187 50 354 46 135 -3 175 -8 253 -30z"/>
<path d="M955 1860 c-230 -120 -427 -228 -437 -240 -17 -21 -18 -55 -18 -470
0 -412 1 -450 18 -469 9 -12 208 -121 442 -242 369 -191 430 -219 460 -215 44
6 859 428 883 457 16 19 17 57 17 470 l0 448 -22 25 c-13 13 -211 122 -440
240 -305 158 -425 216 -450 216 -23 -1 -159 -67 -453 -220z m815 -165 l350
-180 0 -365 0 -365 -355 -180 -355 -180 -343 174 c-188 96 -348 178 -355 184
-9 7 -12 93 -12 371 l0 361 353 182 c193 100 355 181 359 180 4 -1 165 -83
358 -182z"/>
<path d="M853 1491 c-38 -23 -50 -68 -31 -108 10 -22 65 -56 248 -154 l235
-127 5 -263 c3 -145 9 -271 13 -280 24 -49 117 -56 161 -13 l26 27 0 263 0
263 236 128 c199 108 239 133 252 160 13 27 13 37 2 63 -14 34 -55 60 -94 60
-14 0 -130 -56 -258 -125 -127 -69 -235 -125 -239 -125 -4 0 -112 56 -239 125
-135 74 -241 125 -258 125 -15 0 -41 -9 -59 -19z"/>
</g>
</svg>
