<svg version="1.1" id="Layer_1" xmlns="http://www.w3.org/2000/svg" xmlns:xlink="http://www.w3.org/1999/xlink" x="0px" y="0px"
	 width="100%" viewBox="0 0 500 500" enable-background="new 0 0 500 500" xml:space="preserve">
<path fill="#FFFFFE" opacity="1.000000" stroke="none" 
	d="
M218.000000,501.000000 
	C145.333344,501.000000 73.166702,501.000000 1.000039,501.000000 
	C1.000026,334.333405 1.000026,167.666779 1.000013,1.000128 
	C167.666565,1.000085 334.333130,1.000085 500.999756,1.000043 
	C500.999847,167.666534 500.999847,334.333069 500.999939,500.999817 
	C406.833344,501.000000 312.666656,501.000000 218.000000,501.000000 
M315.021271,257.002960 
	C315.021271,257.002960 315.138367,257.103943 314.433868,257.130249 
	C312.589020,259.063629 308.311829,259.748993 310.949066,264.504333 
	C310.970520,264.681519 310.991943,264.858673 311.041382,265.764435 
	C311.943085,266.854340 312.701202,268.701752 313.771027,268.904480 
	C318.699738,269.838440 323.752197,271.045776 328.691833,270.796814 
	C338.100677,270.322571 344.651581,263.405029 344.941193,255.017670 
	C344.941193,255.017670 344.850861,254.883911 345.580597,254.843262 
	C347.066833,252.192886 348.943939,249.681915 349.950226,246.860367 
	C351.570282,242.317917 352.615723,237.570541 353.968414,233.006439 
	C353.968414,233.006439 353.892670,232.912506 354.636536,232.957550 
	C356.372101,230.982941 358.107666,229.008316 359.958069,227.747131 
	C360.344299,229.090988 360.730530,230.434845 361.011200,232.518448 
	C360.719269,233.746338 360.427307,234.974228 360.166656,236.070557 
	C361.935669,236.540543 363.362366,236.919571 364.789062,237.298599 
	C358.586945,239.652283 357.556610,243.962219 357.959229,249.307846 
	C358.144501,251.767685 357.591827,254.277954 357.699005,256.751251 
	C357.744385,257.798004 358.719574,259.732086 359.115021,259.692505 
	C363.078217,259.295898 367.008667,258.572113 371.069000,257.298950 
	C371.057770,256.865814 371.046539,256.432709 371.422760,255.435562 
	C372.490448,255.473846 373.811890,255.116440 374.585846,255.612762 
	C381.025482,259.742554 387.715454,259.978485 394.609192,257.118469 
	C399.492920,255.092361 402.308899,251.327667 402.709381,246.055161 
	C403.086060,241.096313 400.904480,237.168732 396.494781,235.010635 
	C391.593536,232.611969 386.319305,230.972061 381.435242,228.543625 
	C379.679108,227.670456 378.585236,225.465332 377.189148,223.868073 
	C379.488373,223.160950 381.919708,221.643951 384.046967,221.990967 
	C385.905670,222.294159 387.427582,224.689362 389.087799,226.172012 
	C390.068695,227.048004 390.956207,228.593353 392.012909,228.712860 
	C395.070587,229.058701 398.192596,228.835220 401.257141,228.835220 
	C401.257141,222.921295 401.257141,217.709320 401.257141,211.598129 
	C396.919769,213.824860 391.021454,208.664795 389.510773,215.244415 
	C385.219086,213.843704 381.162354,212.058609 376.921906,211.298706 
	C374.121246,210.796844 371.056610,211.768112 367.419189,212.123489 
	C364.862183,213.229721 363.604156,212.610764 364.688995,209.353516 
	C365.109406,209.353165 365.529785,209.352829 365.974579,209.786713 
	C366.138245,210.003952 366.301910,210.221191 366.465607,210.438431 
	C366.658508,210.099640 366.851410,209.760849 367.517151,209.214996 
	C367.662323,209.122604 367.807465,209.030197 368.705139,208.814209 
	C368.731506,206.528442 368.757843,204.242676 368.951935,201.236923 
	C368.293457,199.758041 367.634979,198.279160 366.666046,196.195816 
	C365.239838,193.976990 363.988220,190.741104 361.445648,195.374893 
	C361.281921,195.673294 360.560181,195.841568 360.130951,195.790985 
	C355.784729,195.278900 351.445374,194.708603 346.399139,194.064682 
	C346.096222,194.416397 345.062073,195.617142 343.546173,196.990097 
	C343.376099,197.003006 343.206055,197.015900 342.199463,196.991241 
	C341.082916,197.018463 339.966370,197.045685 337.932892,197.013046 
	C324.540314,197.013046 311.147766,197.013046 297.142700,197.013046 
	C297.142700,191.497818 297.142700,186.940613 297.142700,181.921494 
	C294.076660,182.823837 291.715820,183.517822 289.355469,184.213486 
	C283.213074,186.023758 276.003693,186.876160 279.110657,196.500168 
	C276.892212,196.837662 275.321899,197.076553 273.614197,197.336349 
	C273.614197,201.504929 273.614197,205.433640 273.614197,209.548462 
	C275.454712,209.834427 277.019867,210.077606 278.933624,210.374969 
	C278.933624,214.200180 278.916656,217.842239 278.938293,221.484055 
	C278.961060,225.315399 278.926453,229.150345 279.081818,232.977036 
	C279.579193,245.228592 285.218567,250.049591 297.439087,248.737473 
	C299.589844,248.506561 301.843079,248.479340 303.831238,247.757950 
	C305.085266,247.302933 306.673340,245.826645 306.823730,244.644608 
	C307.235413,241.409225 306.965515,238.087128 306.965515,234.458664 
	C304.869263,234.875870 303.235840,235.728226 302.047821,235.311356 
	C300.351166,234.715958 297.742767,233.261612 297.673981,232.051865 
	C297.263428,224.829788 297.470764,217.572586 297.470764,209.868698 
	C300.913971,209.868698 303.758514,210.144394 306.527588,209.804672 
	C310.778259,209.283218 313.093903,210.961990 314.973022,214.787048 
	C319.666168,224.340179 325.002380,233.578705 329.639038,243.157196 
	C330.694305,245.337219 329.961761,248.382675 329.584686,251.313934 
	C329.565796,251.652893 329.546906,251.991837 329.463623,252.419250 
	C329.463623,252.419250 329.443512,252.526794 328.588226,252.230698 
	C324.928192,252.173798 321.268158,252.116913 317.166290,252.053146 
	C317.179901,251.824448 317.113220,252.943710 316.993286,254.017197 
	C316.993286,254.017197 317.059509,254.039429 316.344238,254.120987 
	C315.935059,255.122177 315.525879,256.123383 315.021271,257.002960 
M206.088608,267.543945 
	C206.382248,267.864624 206.675873,268.185333 206.969513,268.506012 
	C207.145416,268.303162 207.321320,268.100281 207.497223,267.897430 
	C206.993744,267.602295 206.490280,267.307129 206.067032,266.293335 
	C208.422363,261.336914 209.598969,265.482758 211.539795,267.066772 
	C211.539795,267.066772 211.942490,267.227692 212.144165,267.898834 
	C214.161880,267.881134 216.179596,267.863434 218.959717,267.914307 
	C220.020081,266.129120 221.080460,264.343903 222.200134,262.458893 
	C223.738571,263.295532 225.376709,264.186432 227.036072,265.800049 
	C227.879730,266.399384 228.724991,267.500214 229.566742,267.497559 
	C231.545197,267.491302 233.521973,266.957794 236.030151,267.126251 
	C238.284317,267.038239 240.538498,266.950226 243.720322,266.965363 
	C245.581757,266.912323 247.443192,266.859283 250.062042,266.953003 
	C253.092926,266.953003 256.123810,266.953003 259.636078,266.953003 
	C259.055634,265.604095 258.686066,264.237885 258.445404,264.260254 
	C252.569534,264.805756 252.585266,261.188995 252.958755,256.987305 
	C253.047348,255.990662 251.986984,254.891876 251.455124,253.840073 
	C250.582382,254.928192 249.709641,256.016327 247.863892,257.018616 
	C247.215942,257.027618 246.568008,257.036591 245.515060,256.784088 
	C245.265686,256.563599 245.102539,256.291382 245.019608,255.224747 
	C242.573715,250.545258 239.256866,252.610657 235.706772,254.445053 
	C235.464752,254.677307 235.184448,254.845932 234.455307,255.141830 
	C234.201935,255.332031 234.043015,255.582245 233.512619,256.271790 
	C233.098907,256.944824 232.685211,257.617828 231.713837,257.853729 
	C231.154373,256.896149 230.594925,255.938583 229.553024,254.462250 
	C226.661713,253.115967 227.074753,255.401901 226.119644,256.908478 
	C224.765732,256.593964 223.411819,256.279449 222.020416,255.977402 
	C222.020416,255.977402 222.034378,255.935776 222.045471,255.165863 
	C221.053589,253.860184 220.061691,252.554504 219.069794,251.248810 
	C218.041016,252.270126 217.012253,253.291458 215.984924,254.311325 
	C212.574417,250.770264 209.624191,250.002914 207.596848,252.389633 
	C208.807327,252.953140 209.983047,253.500458 211.016739,254.694382 
	C210.947388,255.129684 210.878021,255.564972 210.337082,256.445618 
	C208.601089,258.444824 207.031982,259.966248 206.607529,255.622101 
	C206.551758,255.051071 205.515182,254.575897 205.000488,254.003235 
	C205.000488,254.003235 204.934036,254.062943 204.903549,253.329056 
	C203.718796,250.856689 202.588120,249.695053 200.934311,253.110306 
	C200.527847,253.949692 199.128174,254.308167 198.086792,254.896851 
	C198.086792,254.896851 198.074066,254.798950 197.815445,254.390457 
	C197.577255,254.140991 197.285767,254.021332 196.481155,253.984833 
	C196.481155,253.984833 196.049988,253.818466 195.928375,253.138672 
	C194.607193,252.731354 193.288162,251.981720 191.964493,251.973465 
	C184.549088,251.927185 177.122787,251.862808 169.721344,252.230255 
	C166.836899,252.373459 163.138367,249.833069 161.052094,254.843857 
	C164.838333,257.441711 165.642838,261.083374 164.788666,265.346008 
	C164.702026,265.778442 164.994568,266.286865 165.503738,267.434570 
	C168.653046,268.775940 170.124680,267.777374 169.999512,264.317261 
	C169.911072,261.872772 169.975983,259.422760 169.986679,256.987762 
	C169.986679,256.987762 169.982346,256.971741 170.696365,257.058441 
	C171.264679,257.864746 172.022781,258.598328 172.365021,259.491272 
	C173.315216,261.970551 174.092422,264.516083 174.976822,267.017609 
	C174.976822,267.017609 174.967758,267.054749 175.113907,267.745667 
	C177.082855,267.566284 179.051804,267.386902 181.661163,267.132294 
	C182.089844,267.153412 182.518509,267.174561 183.325592,267.795380 
	C184.006851,268.886780 184.688095,269.978210 185.430847,271.168121 
	C186.882843,269.071564 187.964493,267.509735 189.016937,265.965637 
	C189.016937,265.965637 189.034210,265.948822 189.259766,266.459625 
	C189.595718,266.589966 189.931686,266.720306 190.950516,267.043427 
	C197.069778,267.697296 197.278427,267.606781 198.273193,263.866699 
	C191.320709,263.020325 190.196091,262.566864 190.623840,260.410095 
	C191.594955,255.513718 195.675034,258.189758 199.071381,257.766052 
	C199.409164,258.641449 199.786530,259.503906 200.076889,260.394775 
	C200.783966,262.564209 201.450699,264.746826 202.570038,267.026428 
	C202.570038,267.026428 202.998535,267.157837 203.188385,267.447357 
	C203.461578,267.351654 203.734772,267.255951 204.441788,267.030853 
	C204.441788,267.030853 204.880722,266.919952 205.445160,266.972931 
	C205.634094,266.977600 205.823013,266.982239 206.088608,267.543945 
M144.023254,247.005951 
	C144.023254,247.005951 144.041779,246.930069 144.597855,247.544586 
	C151.731094,247.386703 158.864334,247.228806 166.745682,246.982712 
	C167.496796,247.014526 168.247910,247.046356 169.333664,247.463303 
	C169.884003,247.303406 170.434341,247.143494 171.000000,247.000000 
	C171.000000,247.000000 170.986618,246.982147 171.768158,246.905701 
	C172.437485,244.393784 173.106812,241.881851 173.925735,238.808456 
	C174.992401,241.094406 175.699524,242.609833 176.592651,244.996948 
	C177.812805,245.671097 179.023285,246.908173 180.254654,246.929306 
	C189.154297,247.082230 198.058182,246.989258 207.823318,247.009415 
	C209.262924,246.983521 210.702530,246.957642 213.060867,246.973343 
	C220.971939,246.973343 228.883026,246.973343 236.969559,246.973343 
	C236.969559,243.126602 237.067841,239.971542 236.910431,236.829315 
	C236.862442,235.871124 236.148331,234.157928 235.675385,234.135468 
	C232.226440,233.971573 232.855728,231.511902 232.778625,229.451324 
	C232.536179,222.972229 232.777252,216.437454 232.001938,210.024475 
	C230.760162,199.753082 223.128571,193.661285 213.164627,195.394058 
	C208.556839,196.195358 204.319580,199.127396 199.791077,201.148407 
	C199.132751,200.133392 198.078445,198.507858 196.824402,196.174042 
	C190.228653,196.466171 183.632904,196.758301 176.770950,197.785843 
	C176.632355,198.813629 176.493774,199.841415 175.809998,201.178391 
	C175.994064,202.830093 176.178131,204.481796 176.536636,206.860092 
	C176.562469,207.606995 176.588303,208.353897 176.227386,209.566101 
	C177.707138,210.745743 179.186874,211.925385 180.786469,214.002686 
	C180.740906,217.634079 180.695358,221.265472 179.971542,225.168411 
	C178.992584,228.122818 178.013641,231.077225 177.000610,234.000000 
	C177.000610,234.000000 177.029877,234.035461 176.354553,234.070999 
	C175.539948,234.979233 174.725327,235.887466 173.954987,236.746338 
	C172.879074,235.749405 171.938751,234.878098 170.999390,234.000107 
	C170.999390,234.000107 170.992706,234.003036 170.979187,233.234879 
	C167.604721,229.568573 167.859940,225.084320 167.837082,220.530441 
	C167.811096,215.351837 167.268951,210.175842 166.865997,204.334900 
	C166.895859,203.890671 166.925720,203.446457 167.474365,202.462448 
	C168.417679,195.196457 167.311447,194.174408 160.627182,195.660645 
	C158.563049,196.119583 156.354675,195.903900 154.217667,196.066986 
	C151.139435,196.301910 148.066055,196.600662 144.515549,196.987610 
	C144.515549,196.987610 144.028839,197.033859 143.442261,196.723694 
	C142.279022,196.159012 141.115784,195.594330 139.474701,194.653412 
	C138.007889,194.692627 136.541061,194.731842 134.893829,194.149841 
	C132.204681,191.873428 131.598312,193.920135 130.752930,196.244568 
	C130.752930,196.244568 130.420670,196.346954 129.840637,196.299347 
	C129.578705,196.567490 129.316772,196.835632 128.663223,197.644638 
	C127.277184,199.172348 125.891144,200.700058 124.927025,201.762726 
	C122.882248,199.972015 121.282394,197.371048 119.420647,197.167679 
	C114.048019,196.580841 108.569839,196.960327 103.236374,196.960327 
	C101.481880,206.627411 102.076622,208.847626 106.952904,211.095978 
	C106.952904,216.986481 106.754524,222.971909 107.030762,228.935364 
	C107.184998,232.265015 106.423691,234.341461 102.228546,234.338974 
	C102.507401,238.790558 102.762985,242.870728 103.489853,247.501389 
	C104.423393,247.837830 105.362648,248.479935 106.289574,248.462616 
	C114.049515,248.317581 121.808586,248.083801 129.562393,247.748596 
	C130.077164,247.726334 130.546600,246.655396 130.993484,246.034653 
	C130.993484,246.034653 131.043945,246.006866 131.566620,245.688980 
	C131.388824,243.794540 131.211029,241.900116 130.940140,239.254715 
	C130.968872,238.499863 130.997620,237.745026 131.514526,236.520691 
	C131.188217,235.146164 131.322586,233.087143 130.461304,232.507462 
	C124.573280,228.544678 127.213997,223.549423 128.645477,218.815567 
	C129.001389,217.638596 130.453690,216.418549 131.681686,215.947845 
	C135.909714,214.327209 140.261566,213.029556 145.031052,211.455475 
	C145.374054,213.094788 146.025620,214.818192 146.044113,216.548370 
	C146.109253,222.640594 147.077164,228.908279 143.404236,235.089081 
	C143.350616,235.963287 143.296982,236.837509 142.952072,238.511063 
	C142.757324,241.395248 139.879883,244.633774 144.023254,247.005951 
M280.535217,253.451462 
	C278.317291,254.413925 276.099365,255.376389 273.292908,255.946381 
	C270.467224,252.863907 266.863739,252.590118 263.860596,254.815582 
	C262.103271,256.117859 260.778290,259.145203 260.815399,261.370514 
	C260.845764,263.188873 263.042816,266.326141 264.526489,266.478973 
	C267.481812,266.783417 270.607056,265.438263 274.446960,264.953613 
	C276.642731,265.625092 278.838501,266.296600 281.702179,267.070129 
	C284.184509,266.393616 286.666809,265.717133 289.799835,264.930450 
	C291.011719,264.138641 292.223572,263.346832 292.240997,263.335449 
	C294.900543,266.150177 297.241241,268.627472 299.581970,271.104767 
	C299.905151,270.891235 300.228363,270.677704 300.551544,270.464203 
	C300.385620,267.835724 300.219727,265.207214 300.026245,262.142120 
	C301.933441,262.759094 303.168427,263.158600 303.519623,263.272217 
	C303.630829,261.001831 303.529633,258.947571 303.874329,256.971039 
	C304.427460,253.798965 303.335541,252.765366 300.153687,253.070511 
	C298.244720,253.253571 296.248779,252.405426 294.317535,252.507172 
	C290.512970,252.707581 286.726288,253.246643 282.301941,253.839310 
	C281.865540,253.885727 281.429138,253.932159 280.535217,253.451462 
M70.343956,253.668549 
	C68.724022,253.922546 67.104080,254.176559 66.033073,254.344482 
	C67.488678,256.737427 68.668228,258.676544 69.451859,261.310577 
	C69.455124,262.776825 69.297401,264.271301 69.546806,265.694397 
	C69.637093,266.209503 70.938377,267.036072 71.271591,266.872742 
	C71.908455,266.560608 72.247353,265.640503 72.927536,264.112671 
	C72.959755,261.744324 72.991974,259.376007 73.878334,256.893524 
	C75.585655,256.927460 77.292984,256.961395 78.885315,257.881134 
	C79.254990,261.255646 77.438843,265.856201 82.618553,266.778259 
	C84.880440,267.180908 88.963226,266.446411 89.591148,265.048157 
	C90.908699,262.114349 90.526627,258.401337 90.707535,255.001083 
	C90.723099,254.708542 89.504440,253.970306 89.258629,254.115494 
	C88.536087,254.542282 87.584869,255.253372 87.492676,255.954361 
	C87.172012,258.392487 87.176460,260.873383 86.138634,263.467041 
	C78.928947,263.031891 84.680946,256.376465 81.542679,253.965439 
	C78.060959,253.965439 74.541130,253.965439 70.343956,253.668549 
M38.999523,266.998627 
	C38.999523,266.998627 39.082355,266.914398 39.411755,267.526947 
	C40.657093,268.041962 41.902428,268.556976 44.491875,269.627838 
	C41.534172,262.385773 44.805431,262.670105 48.938148,263.930145 
	C49.544888,264.115143 50.240623,264.008270 51.270008,264.614960 
	C52.461792,265.480377 53.720646,267.144348 54.831898,267.051025 
	C57.438404,266.832092 61.553383,266.443848 62.205559,264.910797 
	C63.508961,261.846893 62.930336,257.969696 63.003151,254.425751 
	C63.007660,254.206268 61.692104,253.608429 61.387650,253.804123 
	C60.669765,254.265579 59.816650,255.039520 59.694195,255.796417 
	C59.433277,257.409119 59.917568,259.178223 59.493713,260.717255 
	C59.160721,261.926331 57.923351,262.886292 57.087727,263.956940 
	C56.347118,262.846527 55.185513,261.816620 54.954418,260.608734 
	C54.487644,258.169006 54.526257,255.632599 54.274414,251.930298 
	C52.187492,253.667023 51.240147,254.455399 49.676067,254.844986 
	C47.739330,249.498077 42.911705,252.830505 39.065441,250.993210 
	C37.875965,256.583740 37.015930,261.698578 38.999523,266.998627 
M463.100159,254.172409 
	C463.009247,252.007370 464.000702,249.299911 460.286163,249.005173 
	C459.877869,248.972763 459.271149,247.744339 459.255798,247.059433 
	C459.160431,242.810638 459.207794,238.558609 459.207794,234.256104 
	C461.493164,234.011276 463.094086,233.839767 464.851135,233.651535 
	C464.851135,230.799194 464.851135,228.229156 464.851135,225.572449 
	C462.876984,225.254745 461.164856,224.979202 458.095398,224.485229 
	C459.407501,221.429764 460.542206,216.814011 461.514587,216.847961 
	C467.218933,217.047104 466.786926,212.589111 468.698212,209.140076 
	C465.964355,208.699158 463.706573,208.097549 461.428680,208.007889 
	C450.332123,207.571106 446.893616,210.816345 446.146271,221.981369 
	C446.071533,223.097687 444.987091,224.128387 444.834808,225.261139 
	C444.463074,228.026535 443.119202,231.781647 444.387421,233.437012 
	C448.190186,238.400803 446.612640,243.861252 445.465698,248.297958 
	C444.726959,251.155533 443.740173,253.837402 444.273346,257.718750 
	C449.720459,257.823761 455.171204,258.053833 460.610779,257.897034 
	C461.413879,257.873840 462.164215,256.019501 463.100159,254.172409 
M431.989990,204.814194 
	C433.374878,204.848587 435.053131,205.413010 436.098694,204.834335 
	C445.253571,199.767532 454.312225,194.525345 463.360443,189.268158 
	C465.973175,187.750122 468.459747,186.014908 471.649445,183.964447 
	C458.679016,176.497864 446.613647,169.527069 434.490997,162.657471 
	C433.954529,162.353455 432.894989,162.972504 431.608643,163.497742 
	C431.608643,167.036224 431.608643,170.574722 431.608643,175.626312 
	C422.180939,170.334122 414.125610,165.812286 405.343170,160.882309 
	C404.979675,166.459702 404.673035,171.164703 403.718567,175.420563 
	C395.689575,170.832993 387.660614,166.245407 379.304993,161.471207 
	C379.304993,176.698013 379.304993,191.453842 379.304993,206.889359 
	C387.719757,202.022461 395.583923,197.474014 404.032806,193.365616 
	C404.518799,197.755676 405.004791,202.145721 405.593597,207.464630 
	C414.278503,202.513168 422.359558,197.905975 431.155121,192.891418 
	C431.494537,197.344925 431.751709,200.719254 431.989990,204.814194 
M98.838333,201.823288 
	C98.838333,193.714417 98.838333,185.605560 98.838333,177.333984 
	C76.137505,177.333984 53.955994,177.333984 31.645853,177.333984 
	C31.645853,185.969528 31.645853,194.226105 31.645853,202.672913 
	C36.647217,202.672913 41.340950,202.672913 46.472828,202.672913 
	C46.472828,198.383911 46.472828,194.458969 46.472828,190.610397 
	C54.725193,189.422745 54.888115,189.555786 54.895733,197.104263 
	C54.899261,200.600830 54.898701,204.097382 54.898865,207.593948 
	C54.899258,216.049164 54.898991,224.504379 54.898991,233.317978 
	C51.939655,233.521027 49.523952,233.686768 46.985779,233.860901 
	C46.985779,238.364456 46.985779,242.556320 46.985779,246.670837 
	C59.492897,246.670837 71.556435,246.670837 83.687965,246.670837 
	C83.687965,242.203339 83.687965,238.129807 83.687965,234.104950 
	C75.697746,233.023300 75.713181,233.023315 75.717728,224.893021 
	C75.723038,215.402390 75.685287,205.911743 75.690094,196.421112 
	C75.693604,189.506042 76.650475,188.857300 84.072128,191.073624 
	C84.072128,194.913986 84.072128,198.891281 84.275063,203.374908 
	C84.382652,204.107666 84.490250,204.840439 84.655464,205.965652 
	C87.924950,206.261795 91.903557,206.636703 95.885017,206.978378 
	C99.282043,207.269897 99.096329,204.998978 98.838333,201.823288 
M261.428406,247.000015 
	C264.023376,247.000015 266.618317,247.000015 269.398315,247.000015 
	C269.398315,242.406097 269.398315,238.476852 269.398315,234.463440 
	C267.809570,234.036331 266.452148,233.671432 264.681763,233.195496 
	C264.681763,221.099960 264.681763,209.187683 264.681763,197.171448 
	C256.757721,197.171448 249.330643,197.171448 241.950684,197.171448 
	C240.273010,206.825241 240.804321,208.930984 245.654877,210.948746 
	C245.654877,216.769135 245.471481,222.756012 245.724182,228.724442 
	C245.873886,232.260208 244.972321,234.460724 241.338623,234.382812 
	C241.338623,238.730576 241.338623,242.727707 241.338623,246.995621 
	C248.158554,246.995621 254.302139,246.995621 261.428406,247.000015 
M441.344574,245.683456 
	C442.904205,234.930923 437.771240,226.894882 428.146301,225.020477 
	C417.775116,223.000732 408.368744,228.327698 406.180267,237.460220 
	C403.862823,247.130905 408.962860,255.597672 418.620209,258.112152 
	C429.261169,260.882690 438.137665,256.301361 441.344574,245.683456 
M488.763824,258.513153 
	C489.710907,255.885971 490.657990,253.258774 491.292236,251.499390 
	C488.327667,250.048264 485.132782,249.346588 485.001465,248.270905 
	C484.432251,243.608063 484.757477,238.836029 484.757477,234.205872 
	C487.097351,233.975479 488.708740,233.816818 490.580566,233.632523 
	C490.580566,230.823044 490.580566,228.271606 490.580566,225.469101 
	C488.582153,225.272018 486.836945,225.099915 484.540649,224.873459 
	C484.540649,221.754944 484.540649,218.887360 484.540649,215.450699 
	C480.725922,216.679138 477.546906,217.531555 474.530060,218.776917 
	C473.604004,219.159180 473.117767,220.614120 472.437531,221.583038 
	C471.565216,222.825485 470.153778,223.989197 469.946899,225.336166 
	C469.524719,228.084320 469.043854,233.104721 469.835968,233.363281 
	C473.266602,234.483093 472.301056,236.804886 472.406921,238.900177 
	C472.599518,242.711121 472.557404,246.537735 472.857574,250.338531 
	C473.368103,256.803497 475.863647,259.026184 482.458618,259.079010 
	C484.277710,259.093567 486.098755,258.858276 488.763824,258.513153 
M151.431839,173.684784 
	C145.938248,178.315125 144.892944,182.634521 148.114685,187.391907 
	C151.429337,192.286484 157.361115,193.818069 162.545059,191.117844 
	C167.242966,188.670761 169.213150,183.753021 167.411346,178.971161 
	C165.379761,173.579453 159.698151,171.011780 153.441010,172.674454 
	C152.964615,172.801010 152.520477,173.049026 151.431839,173.684784 
M94.247772,257.761292 
	C94.247772,260.788757 94.247772,263.816193 94.247772,268.134338 
	C96.797539,266.377075 98.034286,265.524750 99.101006,264.789581 
	C101.240601,265.797485 103.289696,266.762787 105.338799,267.728058 
	C105.602127,265.866577 104.903206,265.056671 104.847046,264.204376 
	C104.794289,263.403687 105.420456,262.558228 105.747894,261.732483 
	C106.500626,262.210938 107.597862,262.511810 107.950790,263.196381 
	C110.441620,268.027832 114.418518,268.976532 119.414673,265.428101 
	C117.457855,264.734314 115.766296,264.134583 113.633110,263.378265 
	C115.405647,262.301331 116.612015,261.568390 117.919182,260.774200 
	C116.851906,259.314148 115.960129,258.094208 114.738686,256.423248 
	C116.453102,256.006378 117.545876,255.740646 118.958023,255.397263 
	C113.262474,252.030396 110.606941,252.696854 106.695526,258.247589 
	C105.884567,257.167175 105.236786,255.989700 104.303535,255.117737 
	C101.052673,252.080383 95.157631,253.160019 94.247772,257.761292 
M244.232300,181.639984 
	C245.060104,183.917587 245.449768,186.506302 246.802399,188.411240 
	C250.124756,193.090195 256.939087,193.850815 261.906708,190.503906 
	C265.996948,187.748093 267.488647,182.105255 264.997070,177.773788 
	C262.667175,173.723434 258.985626,171.579636 254.272797,172.006393 
	C248.899750,172.492935 245.491608,175.485153 244.232300,181.639984 
M126.805878,258.305664 
	C126.734230,258.959930 126.623901,259.612610 126.597359,260.268707 
	C126.449486,263.923981 128.236526,266.787872 131.687912,267.021515 
	C134.279816,267.196930 137.608749,266.140778 139.515640,264.420380 
	C142.100800,262.088104 141.441284,259.018829 139.002777,256.127197 
	C135.481339,251.951340 131.341217,252.288437 126.805878,258.305664 
M143.370499,258.986694 
	C143.235245,260.882233 142.731659,262.853638 143.100739,264.645294 
	C143.327698,265.747009 144.888641,266.573914 146.644028,268.308075 
	C147.085358,265.261078 147.283005,263.896423 147.445602,262.773865 
	C148.958130,262.564117 150.077194,262.408905 150.660217,262.328064 
	C149.361755,260.810272 148.132065,259.372864 146.816422,257.834961 
	C150.037811,256.892059 152.399582,256.200806 154.761353,255.509521 
	C154.716888,255.088791 154.672440,254.668076 154.627975,254.247360 
	C152.429840,254.143585 150.223633,254.124542 148.035477,253.916077 
	C144.797134,253.607574 142.994003,254.812485 143.370499,258.986694 
z"/>
<path fill="#73A01F" opacity="1.000000" stroke="none" 
	d="
M365.950195,209.352478 
	C365.529785,209.352829 365.109406,209.353165 364.075470,209.473312 
	C360.272186,217.366241 357.082428,225.139374 353.892670,232.912506 
	C353.892670,232.912506 353.968414,233.006439 353.649384,233.158966 
	C350.503845,240.502289 347.677338,247.693100 344.850861,254.883911 
	C344.850861,254.883911 344.941193,255.017670 344.629333,255.149841 
	C336.292175,270.217377 324.313843,273.725464 311.013397,265.035797 
	C310.991943,264.858673 310.970520,264.681519 311.203949,264.037598 
	C312.685333,261.415253 313.911865,259.259583 315.138367,257.103943 
	C315.138367,257.103943 315.021271,257.002960 315.353455,256.919495 
	C316.143616,255.903809 316.601562,254.971619 317.059509,254.039429 
	C317.059509,254.039429 316.993286,254.017197 317.408356,253.956940 
	C318.963531,254.396042 320.093445,254.920471 321.245667,255.390121 
	C324.812103,256.843872 327.870270,256.799286 329.443512,252.526794 
	C329.443512,252.526794 329.463623,252.419250 329.687683,252.212921 
	C329.958557,251.680984 330.005341,251.355392 330.052124,251.029800 
	C329.961761,248.382675 330.694305,245.337219 329.639038,243.157196 
	C325.002380,233.578705 319.666168,224.340179 314.973022,214.787048 
	C313.093903,210.961990 310.778259,209.283218 306.527588,209.804672 
	C303.758514,210.144394 300.913971,209.868698 297.470764,209.868698 
	C297.470764,217.572586 297.263428,224.829788 297.673981,232.051865 
	C297.742767,233.261612 300.351166,234.715958 302.047821,235.311356 
	C303.235840,235.728226 304.869263,234.875870 306.965515,234.458664 
	C306.965515,238.087128 307.235413,241.409225 306.823730,244.644608 
	C306.673340,245.826645 305.085266,247.302933 303.831238,247.757950 
	C301.843079,248.479340 299.589844,248.506561 297.439087,248.737473 
	C285.218567,250.049591 279.579193,245.228592 279.081818,232.977036 
	C278.926453,229.150345 278.961060,225.315399 278.938293,221.484055 
	C278.916656,217.842239 278.933624,214.200180 278.933624,210.374969 
	C277.019867,210.077606 275.454712,209.834427 273.614197,209.548462 
	C273.614197,205.433640 273.614197,201.504929 273.614197,197.336349 
	C275.321899,197.076553 276.892212,196.837662 279.110657,196.500168 
	C276.003693,186.876160 283.213074,186.023758 289.355469,184.213486 
	C291.715820,183.517822 294.076660,182.823837 297.142700,181.921494 
	C297.142700,186.940613 297.142700,191.497818 297.142700,197.013046 
	C311.147766,197.013046 324.540314,197.013046 338.430786,197.496872 
	C337.758514,202.332077 342.210754,208.370499 334.683533,210.746719 
	C336.647034,215.401230 338.492432,219.775848 340.757599,225.145493 
	C343.068268,219.713287 344.989075,215.197525 346.909912,210.681747 
	C346.359619,210.772491 345.809326,210.863235 345.259033,210.953979 
	C344.445068,208.798843 343.258881,206.700714 342.917725,204.473190 
	C342.547272,202.054489 342.963074,199.515381 343.036011,197.028778 
	C343.206055,197.015900 343.376099,197.003006 344.247986,196.978943 
	C352.292023,196.911942 359.634247,196.856110 366.976471,196.800278 
	C367.634979,198.279160 368.293457,199.758041 368.532288,201.819855 
	C368.059296,204.581131 368.005981,206.759476 367.952637,208.937805 
	C367.807465,209.030197 367.662323,209.122604 367.013641,209.202240 
	C366.323486,209.243790 366.136841,209.298126 365.950195,209.352478 
z"/>
<path fill="#73A01F" opacity="1.000000" stroke="none" 
	d="
M84.072128,202.868576 
	C84.072128,198.891281 84.072128,194.913986 84.072128,191.073624 
	C76.650475,188.857300 75.693604,189.506042 75.690094,196.421112 
	C75.685287,205.911743 75.723038,215.402390 75.717728,224.893021 
	C75.713181,233.023315 75.697746,233.023300 83.687965,234.104950 
	C83.687965,238.129807 83.687965,242.203339 83.687965,246.670837 
	C71.556435,246.670837 59.492897,246.670837 46.985779,246.670837 
	C46.985779,242.556320 46.985779,238.364456 46.985779,233.860901 
	C49.523952,233.686768 51.939655,233.521027 54.898991,233.317978 
	C54.898991,224.504379 54.899258,216.049164 54.898865,207.593948 
	C54.898701,204.097382 54.899261,200.600830 54.895733,197.104263 
	C54.888115,189.555786 54.725193,189.422745 46.472828,190.610397 
	C46.472828,194.458969 46.472828,198.383911 46.472828,202.672913 
	C41.340950,202.672913 36.647217,202.672913 31.645853,202.672913 
	C31.645853,194.226105 31.645853,185.969528 31.645853,177.333984 
	C53.955994,177.333984 76.137505,177.333984 98.838333,177.333984 
	C98.838333,185.605560 98.838333,193.714417 98.406174,202.340607 
	C93.340057,202.861481 88.706093,202.865036 84.072128,202.868576 
z"/>
<path fill="#72A01D" opacity="1.000000" stroke="none" 
	d="
M180.649780,224.896866 
	C180.695358,221.265472 180.740906,217.634079 180.842957,213.174408 
	C179.471024,211.264359 178.042572,210.182587 176.614136,209.100800 
	C176.588303,208.353897 176.562469,207.606995 176.626251,206.080750 
	C176.595627,203.824020 176.475403,202.346603 176.355194,200.869202 
	C176.493774,199.841415 176.632355,198.813629 177.368774,197.442047 
	C184.319107,197.026291 190.671616,196.954315 197.024139,196.882339 
	C198.078445,198.507858 199.132751,200.133392 199.791077,201.148407 
	C204.319580,199.127396 208.556839,196.195358 213.164627,195.394058 
	C223.128571,193.661285 230.760162,199.753082 232.001938,210.024475 
	C232.777252,216.437454 232.536179,222.972229 232.778625,229.451324 
	C232.855728,231.511902 232.226440,233.971573 235.675385,234.135468 
	C236.148331,234.157928 236.862442,235.871124 236.910431,236.829315 
	C237.067841,239.971542 236.969559,243.126602 236.969559,246.973343 
	C228.883026,246.973343 220.971939,246.973343 212.538483,246.492279 
	C212.031525,236.540451 212.057220,227.069717 212.057190,217.598969 
	C212.057175,213.961365 211.105942,210.751846 206.857513,210.407990 
	C202.660767,210.068314 200.732224,213.106079 200.475006,216.608200 
	C200.066162,222.174408 200.365860,227.792664 200.365860,233.605438 
	C202.669250,233.857269 204.726944,234.082245 206.960709,234.326462 
	C206.960709,238.748428 206.960709,242.861298 206.960709,246.974182 
	C198.058182,246.989258 189.154297,247.082230 180.254654,246.929306 
	C179.023285,246.908173 177.812805,245.671097 176.662476,244.124390 
	C176.831482,240.179703 176.930679,237.107574 177.029877,234.035461 
	C177.029877,234.035461 177.000610,234.000000 177.435303,234.041199 
	C178.907700,233.157776 180.624939,232.365646 180.836578,231.280014 
	C181.233932,229.241913 180.760864,227.034103 180.649780,224.896866 
z"/>
<path fill="#BE1850" opacity="1.000000" stroke="none" 
	d="
M361.116730,231.778702 
	C360.730530,230.434845 360.344299,229.090988 359.977661,227.036560 
	C359.941254,225.441711 359.499908,224.299469 359.891388,223.714828 
	C362.532349,219.770477 365.349823,215.944260 368.110168,212.079819 
	C371.056610,211.768112 374.121246,210.796844 376.921906,211.298706 
	C381.162354,212.058609 385.219086,213.843704 389.510773,215.244415 
	C391.021454,208.664795 396.919769,213.824860 401.257141,211.598129 
	C401.257141,217.709320 401.257141,222.921295 401.257141,228.835220 
	C398.192596,228.835220 395.070587,229.058701 392.012909,228.712860 
	C390.956207,228.593353 390.068695,227.048004 389.087799,226.172012 
	C387.427582,224.689362 385.905670,222.294159 384.046967,221.990967 
	C381.919708,221.643951 379.488373,223.160950 377.189148,223.868073 
	C378.585236,225.465332 379.679108,227.670456 381.435242,228.543625 
	C386.319305,230.972061 391.593536,232.611969 396.494781,235.010635 
	C400.904480,237.168732 403.086060,241.096313 402.709381,246.055161 
	C402.308899,251.327667 399.492920,255.092361 394.609192,257.118469 
	C387.715454,259.978485 381.025482,259.742554 374.585846,255.612762 
	C373.811890,255.116440 372.490448,255.473846 370.824768,255.765686 
	C362.230804,258.410431 361.000977,257.504425 360.998932,249.296265 
	C360.998352,246.834763 360.999756,244.373245 361.451477,241.815720 
	C366.453369,241.733734 371.338715,240.310287 374.150085,246.026505 
	C374.759888,247.266373 377.726074,247.983139 379.516449,247.836395 
	C381.499329,247.673889 383.378387,246.244125 385.302643,245.366211 
	C383.797302,244.127350 382.474823,242.258835 380.754730,241.759323 
	C373.542999,239.664993 366.605988,237.195984 361.116730,231.778702 
z"/>
<path fill="#739F1E" opacity="1.000000" stroke="none" 
	d="
M131.026367,236.990173 
	C130.997620,237.745026 130.968872,238.499863 130.839874,239.911957 
	C130.841049,242.381760 130.942505,244.194321 131.043945,246.006866 
	C131.043945,246.006866 130.993484,246.034653 130.674576,246.304443 
	C121.243301,246.699783 112.130943,246.825348 103.018578,246.950897 
	C102.762985,242.870728 102.507401,238.790558 102.228546,234.338974 
	C106.423691,234.341461 107.184998,232.265015 107.030762,228.935364 
	C106.754524,222.971909 106.952904,216.986481 106.952904,211.095978 
	C102.076622,208.847626 101.481880,206.627411 103.236374,196.960327 
	C108.569839,196.960327 114.048019,196.580841 119.420647,197.167679 
	C121.282394,197.371048 122.882248,199.972015 124.927025,201.762726 
	C125.891144,200.700058 127.277184,199.172348 129.134247,197.345490 
	C129.877060,196.813217 130.148865,196.580078 130.420670,196.346954 
	C130.420670,196.346954 130.752930,196.244568 131.240967,196.121078 
	C132.844086,195.588745 133.959167,195.179901 135.074249,194.771057 
	C136.541061,194.731842 138.007889,194.692627 139.672455,195.305634 
	C139.870193,201.220810 139.870193,206.483780 139.870193,211.566452 
	C125.778236,215.129669 123.794472,218.379822 125.791191,232.236328 
	C128.013062,234.253922 129.519699,235.622040 131.026367,236.990173 
z"/>
<path fill="#74A120" opacity="1.000000" stroke="none" 
	d="
M260.937073,246.997818 
	C254.302139,246.995621 248.158554,246.995621 241.338623,246.995621 
	C241.338623,242.727707 241.338623,238.730576 241.338623,234.382812 
	C244.972321,234.460724 245.873886,232.260208 245.724182,228.724442 
	C245.471481,222.756012 245.654877,216.769135 245.654877,210.948746 
	C240.804321,208.930984 240.273010,206.825241 241.950684,197.171448 
	C249.330643,197.171448 256.757721,197.171448 264.681763,197.171448 
	C264.681763,209.187683 264.681763,221.099960 264.681763,233.195496 
	C266.452148,233.671432 267.809570,234.036331 269.398315,234.463440 
	C269.398315,238.476852 269.398315,242.406097 269.398315,247.000015 
	C266.618317,247.000015 264.023376,247.000015 260.937073,246.997818 
z"/>
<path fill="#73A01F" opacity="1.000000" stroke="none" 
	d="
M143.243362,237.711716 
	C143.296982,236.837509 143.350616,235.963287 143.773499,234.683838 
	C147.098068,234.402756 148.204727,233.078369 148.053177,230.063248 
	C147.828110,225.585800 148.134720,221.082932 147.952682,216.601547 
	C147.839157,213.806534 149.450439,210.091354 144.653030,209.144089 
	C144.176392,209.049973 143.846954,207.094788 143.830963,205.997787 
	C143.787460,203.011398 143.948715,200.022049 144.028839,197.033859 
	C144.028839,197.033859 144.515549,196.987610 145.214508,197.019592 
	C152.606522,197.051575 159.299561,197.051575 165.980789,197.051575 
	C166.379028,199.482681 166.667297,201.242447 166.955582,203.002228 
	C166.925720,203.446457 166.895859,203.890671 166.744019,205.033997 
	C166.572372,213.772675 166.655869,221.816315 166.411835,229.849991 
	C166.304062,233.397415 167.609406,234.662643 170.992706,234.003036 
	C170.992706,234.003036 170.999390,234.000107 171.043976,234.464340 
	C171.054565,238.946426 171.020599,242.964294 170.986618,246.982147 
	C170.986618,246.982147 171.000000,247.000000 170.660126,246.942322 
	C169.879852,246.949142 169.439438,247.013657 168.999023,247.078186 
	C168.247910,247.046356 167.496796,247.014526 165.909439,246.949524 
	C158.062729,246.920914 151.052246,246.925491 144.041779,246.930069 
	C144.041779,246.930069 144.023254,247.005951 143.975555,246.542480 
	C143.699692,243.289917 143.471527,240.500809 143.243362,237.711716 
z"/>
<path fill="#BF144C" opacity="1.000000" stroke="none" 
	d="
M403.448120,192.925568 
	C395.583923,197.474014 387.719757,202.022461 379.304993,206.889359 
	C379.304993,191.453842 379.304993,176.698013 379.304993,161.471207 
	C387.660614,166.245407 395.689575,170.832993 404.215759,175.833878 
	C406.105347,176.842987 407.497742,177.438782 409.100464,178.309753 
	C411.907196,180.214798 414.503540,181.844696 417.838379,183.938187 
	C414.681946,186.231308 412.234131,188.009644 409.460754,189.852615 
	C407.239502,190.920029 405.343811,191.922806 403.448120,192.925568 
z"/>
<path fill="#BE1850" opacity="1.000000" stroke="none" 
	d="
M441.251709,246.081512 
	C438.137665,256.301361 429.261169,260.882690 418.620209,258.112152 
	C408.962860,255.597672 403.862823,247.130905 406.180267,237.460220 
	C408.368744,228.327698 417.775116,223.000732 428.146301,225.020477 
	C437.771240,226.894882 442.904205,234.930923 441.251709,246.081512 
M422.153717,233.686707 
	C418.035004,237.835190 418.312469,242.728928 420.483307,247.452682 
	C421.074707,248.739594 423.810913,249.040848 425.562775,249.794464 
	C426.406586,246.245193 427.760406,242.720703 427.934540,239.138870 
	C428.076599,236.218063 426.968903,233.083328 422.153717,233.686707 
z"/>
<path fill="#76A122" opacity="1.000000" stroke="none" 
	d="
M432.079102,163.161575 
	C432.894989,162.972504 433.954529,162.353455 434.490997,162.657471 
	C446.613647,169.527069 458.679016,176.497864 471.649445,183.964447 
	C468.459747,186.014908 465.973175,187.750122 463.360443,189.268158 
	C454.312225,194.525345 445.253571,199.767532 436.098694,204.834335 
	C435.053131,205.413010 433.374878,204.848587 432.036560,204.097534 
	C432.095978,201.726318 432.335083,200.035751 432.078705,198.424011 
	C431.345856,193.817886 433.316803,191.045120 437.393860,189.105225 
	C439.803833,187.958542 441.884521,186.119812 445.186035,183.857010 
	C443.355988,182.649414 442.485382,181.739365 441.439270,181.437408 
	C432.712952,178.918732 430.775116,172.718933 432.119293,164.647400 
	C432.199158,164.167664 432.096680,163.657547 432.079102,163.161575 
z"/>
<path fill="#BE1850" opacity="1.000000" stroke="none" 
	d="
M443.988129,256.860809 
	C443.740173,253.837402 444.726959,251.155533 445.465698,248.297958 
	C446.612640,243.861252 448.190186,238.400803 444.387421,233.437012 
	C443.119202,231.781647 444.463074,228.026535 444.834808,225.261139 
	C444.987091,224.128387 446.071533,223.097687 446.146271,221.981369 
	C446.893616,210.816345 450.332123,207.571106 461.428680,208.007889 
	C463.706573,208.097549 465.964355,208.699158 468.698212,209.140076 
	C466.786926,212.589111 467.218933,217.047104 461.514587,216.847961 
	C460.542206,216.814011 459.407501,221.429764 458.095398,224.485229 
	C461.164856,224.979202 462.876984,225.254745 464.851135,225.572449 
	C464.851135,228.229156 464.851135,230.799194 464.851135,233.651535 
	C463.094086,233.839767 461.493164,234.011276 459.207794,234.256104 
	C459.207794,238.558609 459.160431,242.810638 459.255798,247.059433 
	C459.271149,247.744339 459.877869,248.972763 460.286163,249.005173 
	C464.000702,249.299911 463.009247,252.007370 462.718079,254.834595 
	C456.239197,258.218842 450.163757,257.594574 444.066925,255.368851 
	C444.040314,255.872726 444.014221,256.366760 443.988129,256.860809 
z"/>
<path fill="#BE1B52" opacity="1.000000" stroke="none" 
	d="
M488.341370,258.625397 
	C486.098755,258.858276 484.277710,259.093567 482.458618,259.079010 
	C475.863647,259.026184 473.368103,256.803497 472.857574,250.338531 
	C472.557404,246.537735 472.599518,242.711121 472.406921,238.900177 
	C472.301056,236.804886 473.266602,234.483093 469.835968,233.363281 
	C469.043854,233.104721 469.524719,228.084320 469.946899,225.336166 
	C470.153778,223.989197 471.565216,222.825485 472.437531,221.583038 
	C473.117767,220.614120 473.604004,219.159180 474.530060,218.776917 
	C477.546906,217.531555 480.725922,216.679138 484.540649,215.450699 
	C484.540649,218.887360 484.540649,221.754944 484.540649,224.873459 
	C486.836945,225.099915 488.582153,225.272018 490.580566,225.469101 
	C490.580566,228.271606 490.580566,230.823044 490.580566,233.632523 
	C488.708740,233.816818 487.097351,233.975479 484.757477,234.205872 
	C484.757477,238.836029 484.432251,243.608063 485.001465,248.270905 
	C485.132782,249.346588 488.327667,250.048264 491.292236,251.499390 
	C490.657990,253.258774 489.710907,255.885971 488.341370,258.625397 
z"/>
<path fill="#76A122" opacity="1.000000" stroke="none" 
	d="
M151.746597,173.462677 
	C152.520477,173.049026 152.964615,172.801010 153.441010,172.674454 
	C159.698151,171.011780 165.379761,173.579453 167.411346,178.971161 
	C169.213150,183.753021 167.242966,188.670761 162.545059,191.117844 
	C157.361115,193.818069 151.429337,192.286484 148.114685,187.391907 
	C144.892944,182.634521 145.938248,178.315125 151.746597,173.462677 
z"/>
<path fill="#E6A337" opacity="1.000000" stroke="none" 
	d="
M431.843872,163.329651 
	C432.096680,163.657547 432.199158,164.167664 432.119293,164.647400 
	C430.775116,172.718933 432.712952,178.918732 441.439270,181.437408 
	C442.485382,181.739365 443.355988,182.649414 445.186035,183.857010 
	C441.884521,186.119812 439.803833,187.958542 437.393860,189.105225 
	C433.316803,191.045120 431.345856,193.817886 432.078705,198.424011 
	C432.335083,200.035751 432.095978,201.726318 432.046021,203.737244 
	C431.751709,200.719254 431.494537,197.344925 431.155121,192.891418 
	C422.359558,197.905975 414.278503,202.513168 405.593597,207.464630 
	C405.004791,202.145721 404.518799,197.755676 403.740479,193.145599 
	C405.343811,191.922806 407.239502,190.920029 409.492126,190.234756 
	C407.922699,194.279831 405.280609,197.908081 408.399414,203.081314 
	C410.318634,201.965958 412.021881,200.918854 413.776459,199.966446 
	C420.886719,196.106949 428.047913,192.339447 435.108215,188.391220 
	C436.870575,187.405685 438.326477,185.872238 439.923248,184.590637 
	C438.402466,183.349548 436.906128,182.076660 435.350555,180.880829 
	C434.580475,180.288803 433.709747,179.824448 432.870209,179.326538 
	C424.637390,174.443954 416.401581,169.566483 408.166595,164.687546 
	C407.530945,165.110016 406.895264,165.532471 406.259613,165.954941 
	C407.222015,168.926361 408.277588,171.872574 409.092743,174.883881 
	C409.353027,175.845352 408.975708,176.979446 408.890137,178.034576 
	C407.497742,177.438782 406.105347,176.842987 404.539673,176.058456 
	C404.673035,171.164703 404.979675,166.459702 405.343170,160.882309 
	C414.125610,165.812286 422.180939,170.334122 431.608643,175.626312 
	C431.608643,170.574722 431.608643,167.036224 431.843872,163.329651 
z"/>
<path fill="#F7FCE9" opacity="1.000000" stroke="none" 
	d="
M207.392014,246.991791 
	C206.960709,242.861298 206.960709,238.748428 206.960709,234.326462 
	C204.726944,234.082245 202.669250,233.857269 200.365860,233.605438 
	C200.365860,227.792664 200.066162,222.174408 200.475006,216.608200 
	C200.732224,213.106079 202.660767,210.068314 206.857513,210.407990 
	C211.105942,210.751846 212.057175,213.961365 212.057190,217.598969 
	C212.057220,227.069717 212.031525,236.540451 212.079117,246.471481 
	C210.702530,246.957642 209.262924,246.983521 207.392014,246.991791 
z"/>
<path fill="#E6A546" opacity="1.000000" stroke="none" 
	d="
M94.242035,257.322144 
	C95.157631,253.160019 101.052673,252.080383 104.303535,255.117737 
	C105.236786,255.989700 105.884567,257.167175 106.695526,258.247589 
	C110.606941,252.696854 113.262474,252.030396 118.958023,255.397263 
	C117.545876,255.740646 116.453102,256.006378 114.738686,256.423248 
	C115.960129,258.094208 116.851906,259.314148 117.919182,260.774200 
	C116.612015,261.568390 115.405647,262.301331 113.633110,263.378265 
	C115.766296,264.134583 117.457855,264.734314 119.414673,265.428101 
	C114.418518,268.976532 110.441620,268.027832 107.950790,263.196381 
	C107.597862,262.511810 106.500626,262.210938 105.747894,261.732483 
	C105.420456,262.558228 104.794289,263.403687 104.847046,264.204376 
	C104.903206,265.056671 105.602127,265.866577 105.338799,267.728058 
	C103.289696,266.762787 101.240601,265.797485 99.101006,264.789581 
	C98.034286,265.524750 96.797539,266.377075 94.247772,268.134338 
	C94.247772,263.816193 94.247772,260.788757 94.242035,257.322144 
M106.715897,260.550964 
	C107.227379,260.657410 107.738861,260.763855 108.250328,260.870331 
	C108.248993,260.620270 108.308434,260.173828 108.236588,260.151581 
	C107.713402,259.989655 107.163811,259.913086 106.715897,260.550964 
z"/>
<path fill="#FDF2CF" opacity="1.000000" stroke="none" 
	d="
M282.932190,253.645645 
	C286.726288,253.246643 290.512970,252.707581 294.317535,252.507172 
	C296.248779,252.405426 298.244720,253.253571 300.153687,253.070511 
	C303.335541,252.765366 304.427460,253.798965 303.874329,256.971039 
	C303.529633,258.947571 303.630829,261.001831 303.519623,263.272217 
	C303.168427,263.158600 301.933441,262.759094 300.026245,262.142120 
	C300.219727,265.207214 300.385620,267.835724 300.551544,270.464203 
	C300.228363,270.677704 299.905151,270.891235 299.581970,271.104767 
	C297.241241,268.627472 294.900543,266.150177 292.240997,263.335449 
	C292.223572,263.346832 291.011719,264.138641 289.442627,264.579346 
	C289.095154,263.142548 289.104889,262.056824 289.457092,260.978638 
	C290.415802,260.617889 291.032043,260.249634 291.648285,259.881348 
	C291.278595,259.395844 290.908875,258.910339 290.539154,258.424805 
	C289.962341,259.026398 289.385529,259.627991 288.455872,260.254181 
	C286.850342,261.601685 285.775146,263.670471 284.291656,264.023468 
	C282.985565,264.334259 279.998352,262.825500 279.927246,261.944763 
	C279.795624,260.315125 281.252991,258.557159 282.465240,256.859558 
	C284.757202,256.866425 286.632446,256.866425 288.507690,256.866425 
	C288.560242,256.528656 288.612793,256.190887 288.665344,255.853104 
	C287.905640,255.493683 287.145966,255.134247 286.300537,254.742935 
	C286.214844,254.711044 286.089294,254.844086 285.879974,254.562744 
	C284.757843,254.069489 283.845001,253.857559 282.932190,253.645645 
z"/>
<path fill="#DCEBC0" opacity="1.000000" stroke="none" 
	d="
M143.735550,196.878784 
	C143.948715,200.022049 143.787460,203.011398 143.830963,205.997787 
	C143.846954,207.094788 144.176392,209.049973 144.653030,209.144089 
	C149.450439,210.091354 147.839157,213.806534 147.952682,216.601547 
	C148.134720,221.082932 147.828110,225.585800 148.053177,230.063248 
	C148.204727,233.078369 147.098068,234.402756 143.737305,234.356201 
	C147.077164,228.908279 146.109253,222.640594 146.044113,216.548370 
	C146.025620,214.818192 145.374054,213.094788 145.031052,211.455475 
	C140.261566,213.029556 135.909714,214.327209 131.681686,215.947845 
	C130.453690,216.418549 129.001389,217.638596 128.645477,218.815567 
	C127.213997,223.549423 124.573280,228.544678 130.461304,232.507462 
	C131.322586,233.087143 131.188217,235.146164 131.270447,236.755432 
	C129.519699,235.622040 128.013062,234.253922 125.791191,232.236328 
	C123.794472,218.379822 125.778236,215.129669 139.870193,211.566452 
	C139.870193,206.483780 139.870193,201.220810 139.911377,195.493759 
	C141.115784,195.594330 142.279022,196.159012 143.735550,196.878784 
z"/>
<path fill="#FBE2EF" opacity="1.000000" stroke="none" 
	d="
M361.063965,232.148575 
	C366.605988,237.195984 373.542999,239.664993 380.754730,241.759323 
	C382.474823,242.258835 383.797302,244.127350 385.302643,245.366211 
	C383.378387,246.244125 381.499329,247.673889 379.516449,247.836395 
	C377.726074,247.983139 374.759888,247.266373 374.150085,246.026505 
	C371.338715,240.310287 366.453369,241.733734 361.045776,242.005280 
	C360.188904,247.335632 360.188904,252.380402 360.188904,257.940491 
	C363.783966,257.940491 367.366150,257.940491 370.948364,257.940491 
	C367.008667,258.572113 363.078217,259.295898 359.115021,259.692505 
	C358.719574,259.732086 357.744385,257.798004 357.699005,256.751251 
	C357.591827,254.277954 358.144501,251.767685 357.959229,249.307846 
	C357.556610,243.962219 358.586945,239.652283 364.789062,237.298599 
	C363.362366,236.919571 361.935669,236.540543 360.166656,236.070557 
	C360.427307,234.974228 360.719269,233.746338 361.063965,232.148575 
z"/>
<path fill="#FDF2CF" opacity="1.000000" stroke="none" 
	d="
M161.091949,254.107422 
	C163.138367,249.833069 166.836899,252.373459 169.721344,252.230255 
	C177.122787,251.862808 184.549088,251.927185 191.964493,251.973465 
	C193.288162,251.981720 194.607193,252.731354 195.574677,253.538086 
	C192.662521,255.045258 188.748444,255.539841 187.897919,257.420166 
	C186.895538,259.636200 188.545959,263.052216 189.046143,265.947937 
	C187.964493,267.509735 186.882843,269.071564 185.430847,271.168121 
	C184.688095,269.978210 184.006851,268.886780 183.466064,267.375732 
	C183.286682,266.231720 183.139496,265.075867 182.613953,264.865631 
	C181.161407,264.284515 179.550903,264.098297 178.002838,263.755951 
	C178.012787,263.330963 178.022751,262.905945 178.032700,262.480927 
	C179.840439,261.791534 181.648178,261.102112 184.520325,260.006775 
	C181.548080,259.208405 179.684021,258.707703 177.819962,258.207001 
	C177.875687,257.797638 177.931396,257.388245 177.987106,256.978851 
	C179.929031,256.512024 181.870972,256.045197 183.812897,255.578384 
	C183.734863,255.175385 183.656845,254.772369 183.578812,254.369370 
	C180.788971,254.369370 177.999115,254.369370 174.937958,254.369370 
	C174.937958,258.844727 174.937958,262.940094 174.937958,267.035461 
	C174.092422,264.516083 173.315216,261.970551 172.365021,259.491272 
	C172.022781,258.598328 171.264679,257.864746 170.579163,256.748840 
	C172.586884,255.063217 172.180588,254.104736 169.873581,253.996933 
	C166.954483,253.860474 164.019867,254.055405 161.091949,254.107422 
z"/>
<path fill="#81A143" opacity="1.000000" stroke="none" 
	d="
M244.310730,181.262558 
	C245.491608,175.485153 248.899750,172.492935 254.272797,172.006393 
	C258.985626,171.579636 262.667175,173.723434 264.997070,177.773788 
	C267.488647,182.105255 265.996948,187.748093 261.906708,190.503906 
	C256.939087,193.850815 250.124756,193.090195 246.802399,188.411240 
	C245.449768,186.506302 245.060104,183.917587 244.310730,181.262558 
M247.819687,185.309677 
	C248.843781,186.358200 249.700150,187.700226 250.923828,188.399475 
	C254.411407,190.392410 258.559570,190.186203 261.046570,187.632370 
	C262.793274,185.838730 263.418610,181.715225 262.697968,179.151138 
	C262.128845,177.126083 258.960724,175.127457 256.571747,174.460373 
	C251.137863,172.943085 246.535965,178.331299 247.819687,185.309677 
z"/>
<path fill="#F7FCE9" opacity="1.000000" stroke="none" 
	d="
M342.617737,197.010010 
	C342.963074,199.515381 342.547272,202.054489 342.917725,204.473190 
	C343.258881,206.700714 344.445068,208.798843 345.259033,210.953979 
	C345.809326,210.863235 346.359619,210.772491 346.909912,210.681747 
	C344.989075,215.197525 343.068268,219.713287 340.757599,225.145493 
	C338.492432,219.775848 336.647034,215.401230 334.683533,210.746719 
	C342.210754,208.370499 337.758514,202.332077 338.889282,197.526810 
	C339.966370,197.045685 341.082916,197.018463 342.617737,197.010010 
z"/>
<path fill="#E6A546" opacity="1.000000" stroke="none" 
	d="
M50.292801,255.243790 
	C51.240147,254.455399 52.187492,253.667023 54.274414,251.930298 
	C54.526257,255.632599 54.487644,258.169006 54.954418,260.608734 
	C55.185513,261.816620 56.347118,262.846527 57.087730,263.956940 
	C57.923351,262.886292 59.160721,261.926331 59.493713,260.717255 
	C59.917568,259.178223 59.433277,257.409119 59.694195,255.796417 
	C59.816650,255.039520 60.669765,254.265579 61.387650,253.804123 
	C61.692104,253.608429 63.007660,254.206268 63.003151,254.425751 
	C62.930336,257.969696 63.508961,261.846893 62.205559,264.910797 
	C61.553383,266.443848 57.438404,266.832092 54.831898,267.051025 
	C53.720646,267.144348 52.461792,265.480377 51.135544,263.952637 
	C50.672993,261.862122 50.344898,260.433990 50.049065,258.629700 
	C50.066025,257.499176 50.050720,256.744812 50.131516,255.814697 
	C50.227612,255.638992 50.292805,255.243790 50.292801,255.243790 
z"/>
<path fill="#E6A546" opacity="1.000000" stroke="none" 
	d="
M126.913620,257.951233 
	C131.341217,252.288437 135.481339,251.951340 139.002777,256.127197 
	C141.441284,259.018829 142.100800,262.088104 139.515640,264.420380 
	C137.608749,266.140778 134.279816,267.196930 131.687912,267.021515 
	C128.236526,266.787872 126.449486,263.923981 126.597359,260.268707 
	C126.623901,259.612610 126.734230,258.959930 126.913620,257.951233 
M136.950043,262.137573 
	C136.211014,260.417847 135.682297,258.537415 134.580093,257.095245 
	C134.315750,256.749359 131.491409,257.507568 131.014572,258.390167 
	C130.404968,259.518524 130.585709,262.383698 131.120285,262.576691 
	C132.773788,263.173615 134.756760,262.857880 136.950043,262.137573 
z"/>
<path fill="#E6A546" opacity="1.000000" stroke="none" 
	d="
M273.662109,264.774536 
	C270.607056,265.438263 267.481812,266.783417 264.526489,266.478973 
	C263.042816,266.326141 260.845764,263.188873 260.815399,261.370514 
	C260.778290,259.145203 262.103271,256.117859 263.860596,254.815582 
	C266.863739,252.590118 270.467224,252.863907 273.688751,256.491760 
	C273.943756,259.616302 273.802917,262.195404 273.662109,264.774536 
M265.356323,263.308807 
	C267.200256,263.025391 269.241516,263.105347 270.784546,262.267609 
	C271.348633,261.961395 271.287964,258.919891 270.502899,258.132111 
	C269.611786,257.237946 266.567261,256.830597 266.251434,257.334656 
	C265.317963,258.824585 265.268555,260.868439 265.356323,263.308807 
z"/>
<path fill="#FDF2CF" opacity="1.000000" stroke="none" 
	d="
M49.984436,255.044388 
	C50.292805,255.243790 50.227612,255.638992 49.757225,255.820312 
	C48.602512,256.621948 47.918186,257.242218 47.233864,257.862518 
	C48.161514,258.243622 49.089161,258.624725 50.016808,259.005829 
	C50.344898,260.433990 50.672993,261.862122 50.948132,263.663361 
	C50.240623,264.008270 49.544888,264.115143 48.938148,263.930145 
	C44.805431,262.670105 41.534172,262.385773 44.491875,269.627838 
	C41.902428,268.556976 40.657093,268.041962 39.659470,267.230347 
	C40.667477,265.582581 41.804260,264.309662 42.104652,262.863007 
	C42.626652,260.349182 42.631924,257.728058 42.858250,255.100922 
	C39.997471,254.235306 38.747482,255.335770 38.955780,258.505127 
	C39.139484,261.300262 39.052628,264.113159 39.085239,266.918213 
	C37.015930,261.698578 37.875965,256.583740 39.065441,250.993210 
	C42.911705,252.830505 47.739330,249.498077 49.984436,255.044388 
z"/>
<path fill="#E6A546" opacity="1.000000" stroke="none" 
	d="
M242.792664,266.862183 
	C240.538498,266.950226 238.284317,267.038239 235.597412,266.573212 
	C234.200287,263.443726 233.235886,260.867310 232.271500,258.290863 
	C232.685211,257.617828 233.098907,256.944824 233.984253,256.030090 
	C234.767700,255.595032 234.904373,255.315887 234.865891,254.950943 
	C235.184448,254.845932 235.464752,254.677307 236.281281,254.254333 
	C239.579086,254.698212 242.302368,255.332825 245.025650,255.967453 
	C245.102539,256.291382 245.265686,256.563599 245.741272,257.334534 
	C246.736511,261.523621 245.863037,264.581360 242.792664,266.862183 
M243.044144,260.493866 
	C242.840836,256.993225 240.477722,256.122772 237.930649,257.345551 
	C236.776566,257.899567 235.587509,261.166901 236.169617,262.062744 
	C238.521347,265.682007 240.863022,263.268829 243.044144,260.493866 
z"/>
<path fill="#E6A546" opacity="1.000000" stroke="none" 
	d="
M189.031540,265.956787 
	C188.545959,263.052216 186.895538,259.636200 187.897919,257.420166 
	C188.748444,255.539841 192.662521,255.045258 195.635498,253.877975 
	C196.049988,253.818466 196.481155,253.984833 196.831635,254.222168 
	C197.424881,254.716019 197.722198,254.829163 198.074066,254.798950 
	C198.074066,254.798950 198.086792,254.896851 198.167740,255.159103 
	C198.283585,256.089966 198.318481,256.758606 198.353378,257.427216 
	C195.675034,258.189758 191.594955,255.513718 190.623840,260.410095 
	C190.196091,262.566864 191.320709,263.020325 198.273193,263.866699 
	C197.278427,267.606781 197.069778,267.697296 190.462234,266.724213 
	C189.660706,266.252960 189.347458,266.100891 189.034210,265.948822 
	C189.034210,265.948822 189.016937,265.965637 189.031540,265.956787 
z"/>
<path fill="#E6A337" opacity="1.000000" stroke="none" 
	d="
M210.808655,256.000275 
	C210.878021,255.564972 210.947388,255.129684 211.497650,254.380310 
	C214.941223,256.453491 214.918762,264.651642 211.942490,267.227692 
	C211.942490,267.227692 211.539795,267.066772 211.302322,266.580902 
	C211.387741,262.397156 209.671600,260.717804 206.269516,262.234650 
	C205.302475,262.665802 205.316559,265.297424 204.880707,266.919952 
	C204.880722,266.919952 204.441788,267.030853 203.972717,267.035217 
	C203.335266,267.078979 203.166901,267.118408 202.998535,267.157837 
	C202.998535,267.157837 202.570038,267.026428 202.313629,266.519592 
	C202.051010,262.941254 201.807129,259.841095 202.171799,256.814270 
	C202.293884,255.800934 203.968887,254.974701 204.934052,254.062958 
	C204.934036,254.062943 205.000488,254.003235 204.993668,254.450592 
	C205.129715,256.891815 204.515594,259.256378 207.981445,259.081177 
	C210.212982,258.968384 211.437668,258.480804 210.808655,256.000275 
z"/>
<path fill="#FDF2CF" opacity="1.000000" stroke="none" 
	d="
M212.043335,267.563263 
	C214.918762,264.651642 214.941223,256.453491 211.568665,254.057007 
	C209.983047,253.500458 208.807327,252.953140 207.596848,252.389633 
	C209.624191,250.002914 212.574417,250.770264 215.984924,254.311325 
	C217.012253,253.291458 218.041016,252.270126 219.069794,251.248810 
	C220.061691,252.554504 221.053589,253.860184 221.709534,255.395782 
	C220.403641,255.097290 219.433670,254.568878 217.537491,253.535889 
	C217.794083,259.100464 217.995697,263.473083 218.197327,267.845734 
	C216.179596,267.863434 214.161880,267.881134 212.043335,267.563263 
z"/>
<path fill="#E4A043" opacity="1.000000" stroke="none" 
	d="
M87.057274,263.338013 
	C87.176460,260.873383 87.172012,258.392487 87.492676,255.954361 
	C87.584869,255.253372 88.536087,254.542282 89.258629,254.115494 
	C89.504440,253.970306 90.723099,254.708542 90.707535,255.001083 
	C90.526627,258.401337 90.908699,262.114349 89.591148,265.048157 
	C88.963226,266.446411 84.880440,267.180908 82.618553,266.778259 
	C77.438843,265.856201 79.254990,261.255646 79.002716,257.103821 
	C80.046089,256.683655 81.582146,256.843842 81.774063,257.438110 
	C82.205719,258.774750 81.765511,260.367615 82.048317,261.782654 
	C82.728439,265.185547 84.293938,266.347473 87.057274,263.338013 
z"/>
<path fill="#E6A546" opacity="1.000000" stroke="none" 
	d="
M248.836914,257.104431 
	C249.709641,256.016327 250.582382,254.928192 251.455124,253.840073 
	C251.986984,254.891876 253.047348,255.990662 252.958755,256.987305 
	C252.585266,261.188995 252.569534,264.805756 258.445404,264.260254 
	C258.686066,264.237885 259.055634,265.604095 259.636078,266.953003 
	C256.123810,266.953003 253.092926,266.953003 249.673172,266.452820 
	C249.135162,263.003265 248.986038,260.053833 248.836914,257.104431 
z"/>
<path fill="#EDF8D3" opacity="1.000000" stroke="none" 
	d="
M311.027405,265.400116 
	C324.313843,273.725464 336.292175,270.217377 344.592255,255.079697 
	C344.651581,263.405029 338.100677,270.322571 328.691833,270.796814 
	C323.752197,271.045776 318.699738,269.838440 313.771027,268.904480 
	C312.701202,268.701752 311.943085,266.854340 311.027405,265.400116 
z"/>
<path fill="#E4A043" opacity="1.000000" stroke="none" 
	d="
M174.957397,267.026550 
	C174.937958,262.940094 174.937958,258.844727 174.937958,254.369370 
	C177.999115,254.369370 180.788971,254.369370 183.578812,254.369370 
	C183.656845,254.772369 183.734863,255.175385 183.812897,255.578384 
	C181.870972,256.045197 179.929031,256.512024 177.987106,256.978851 
	C177.931396,257.388245 177.875687,257.797638 177.819962,258.207001 
	C179.684021,258.707703 181.548080,259.208405 184.520325,260.006775 
	C181.648178,261.102112 179.840439,261.791534 178.032700,262.480927 
	C178.022751,262.905945 178.012787,263.330963 178.002838,263.755951 
	C179.550903,264.098297 181.161407,264.284515 182.613953,264.865631 
	C183.139496,265.075867 183.286682,266.231720 183.276855,267.075867 
	C182.518509,267.174561 182.089844,267.153412 180.914368,267.095093 
	C178.434311,267.056824 176.701035,267.055786 174.967758,267.054749 
	C174.967758,267.054749 174.976822,267.017609 174.957397,267.026550 
z"/>
<path fill="#E4A043" opacity="1.000000" stroke="none" 
	d="
M143.210953,258.611572 
	C142.994003,254.812485 144.797134,253.607574 148.035477,253.916077 
	C150.223633,254.124542 152.429840,254.143585 154.627975,254.247360 
	C154.672440,254.668076 154.716888,255.088791 154.761353,255.509521 
	C152.399582,256.200806 150.037811,256.892059 146.816422,257.834961 
	C148.132065,259.372864 149.361755,260.810272 150.660217,262.328064 
	C150.077194,262.408905 148.958130,262.564117 147.445602,262.773865 
	C147.283005,263.896423 147.085358,265.261078 146.644028,268.308075 
	C144.888641,266.573914 143.327698,265.747009 143.100739,264.645294 
	C142.731659,262.853638 143.235245,260.882233 143.210953,258.611572 
z"/>
<path fill="#EDF8D3" opacity="1.000000" stroke="none" 
	d="
M367.764679,212.101654 
	C365.349823,215.944260 362.532349,219.770477 359.891388,223.714828 
	C359.499908,224.299469 359.941254,225.441711 359.920258,226.679840 
	C358.107666,229.008316 356.372101,230.982941 354.264587,232.935028 
	C357.082428,225.139374 360.272186,217.366241 363.790161,209.615616 
	C363.604156,212.610764 364.862183,213.229721 367.764679,212.101654 
z"/>
<path fill="#E6A337" opacity="1.000000" stroke="none" 
	d="
M218.578522,267.880005 
	C217.995697,263.473083 217.794083,259.100464 217.537491,253.535889 
	C219.433670,254.568878 220.403641,255.097290 221.703995,255.780731 
	C222.034378,255.935776 222.020416,255.977402 222.103638,256.272675 
	C222.785934,257.397400 223.385010,258.226837 224.169098,259.376617 
	C225.729889,260.164124 227.105682,260.631317 228.399719,261.447144 
	C227.883591,262.889618 227.449219,263.983459 227.014862,265.077332 
	C225.376709,264.186432 223.738571,263.295532 222.200134,262.458893 
	C221.080460,264.343903 220.020081,266.129120 218.578522,267.880005 
z"/>
<path fill="#E4A043" opacity="1.000000" stroke="none" 
	d="
M289.114655,260.971130 
	C289.104889,262.056824 289.095154,263.142548 289.117249,264.634460 
	C286.666809,265.717133 284.184509,266.393616 281.137756,266.750427 
	C276.477753,264.151062 275.658752,261.020264 278.443420,256.985870 
	C279.193207,256.522522 279.632019,256.107513 280.141998,255.531494 
	C280.367126,255.185272 280.557648,255.052628 281.230591,254.981537 
	C283.147400,254.941696 284.618347,254.892899 286.089294,254.844086 
	C286.089294,254.844086 286.214844,254.711044 286.040253,255.014801 
	C284.593292,255.829910 283.320892,256.341278 282.048523,256.852661 
	C281.252991,258.557159 279.795624,260.315125 279.927246,261.944763 
	C279.998352,262.825500 282.985565,264.334259 284.291656,264.023468 
	C285.775146,263.670471 286.850342,261.601685 288.512268,260.447845 
	C288.921509,260.616943 289.114655,260.971130 289.114655,260.971130 
z"/>
<path fill="#DCEBC0" opacity="1.000000" stroke="none" 
	d="
M170.985947,233.618958 
	C167.609406,234.662643 166.304062,233.397415 166.411835,229.849991 
	C166.655869,221.816315 166.572372,213.772675 166.786621,205.365906 
	C167.268951,210.175842 167.811096,215.351837 167.837082,220.530441 
	C167.859940,225.084320 167.604721,229.568573 170.985947,233.618958 
z"/>
<path fill="#E6A546" opacity="1.000000" stroke="none" 
	d="
M161.072021,254.475647 
	C164.019867,254.055405 166.954483,253.860474 169.873581,253.996933 
	C172.180588,254.104736 172.586884,255.063217 170.222153,256.705505 
	C169.982346,256.971741 169.986679,256.987762 169.588242,257.043945 
	C168.861267,259.381653 168.816040,261.758911 168.090256,263.906128 
	C167.699875,265.061127 166.142151,265.821533 165.111145,266.760010 
	C164.994568,266.286865 164.702026,265.778442 164.788666,265.346008 
	C165.642838,261.083374 164.838333,257.441711 161.072021,254.475647 
z"/>
<path fill="#E6A337" opacity="1.000000" stroke="none" 
	d="
M69.847778,260.615662 
	C68.668228,258.676544 67.488678,256.737427 66.033073,254.344482 
	C67.104080,254.176559 68.724022,253.922546 70.825378,254.040985 
	C72.275421,254.741180 73.244041,255.068924 74.256905,255.411652 
	C73.785088,256.022491 73.404633,256.515076 73.024185,257.007660 
	C72.991974,259.376007 72.959755,261.744324 72.443298,264.530914 
	C71.255302,263.504669 70.551537,262.060150 69.847778,260.615662 
z"/>
<path fill="#F7FCE9" opacity="1.000000" stroke="none" 
	d="
M84.173599,203.121735 
	C88.706093,202.865036 93.340057,202.861481 98.427773,202.791687 
	C99.096329,204.998978 99.282043,207.269897 95.885017,206.978378 
	C91.903557,206.636703 87.924950,206.261795 84.655464,205.965652 
	C84.490250,204.840439 84.382652,204.107666 84.173599,203.121735 
z"/>
<path fill="#FDF2CF" opacity="1.000000" stroke="none" 
	d="
M227.025467,265.438690 
	C227.449219,263.983459 227.883591,262.889618 228.654205,261.204742 
	C229.338776,258.736145 229.687119,256.858582 230.035461,254.981003 
	C230.594925,255.938583 231.154373,256.896149 231.992676,258.072296 
	C233.235886,260.867310 234.200287,263.443726 235.332062,266.328918 
	C233.521973,266.957794 231.545197,267.491302 229.566742,267.497559 
	C228.724991,267.500214 227.879730,266.399384 227.025467,265.438690 
z"/>
<path fill="#DCEBC0" opacity="1.000000" stroke="none" 
	d="
M171.377380,246.943924 
	C171.020599,242.964294 171.054565,238.946426 171.043488,234.467682 
	C171.938751,234.878098 172.879074,235.749405 173.954987,236.746338 
	C174.725327,235.887466 175.539948,234.979233 176.692215,234.053223 
	C176.930679,237.107574 176.831482,240.179703 176.569458,243.688538 
	C175.699524,242.609833 174.992401,241.094406 173.925735,238.808456 
	C173.106812,241.881851 172.437485,244.393784 171.377380,246.943924 
z"/>
<path fill="#E6A546" opacity="1.000000" stroke="none" 
	d="
M73.451256,256.950592 
	C73.404633,256.515076 73.785088,256.022491 74.256905,255.411652 
	C73.244041,255.068924 72.275421,254.741180 71.164055,254.189423 
	C74.541130,253.965439 78.060959,253.965439 81.542679,253.965439 
	C84.680946,256.376465 78.928947,263.031891 86.597954,263.402527 
	C84.293938,266.347473 82.728439,265.185547 82.048317,261.782654 
	C81.765511,260.367615 82.205719,258.774750 81.774063,257.438110 
	C81.582146,256.843842 80.046089,256.683655 79.060211,256.660889 
	C77.292984,256.961395 75.585655,256.927460 73.451256,256.950592 
z"/>
<path fill="#F7FCE9" opacity="1.000000" stroke="none" 
	d="
M366.821259,196.498047 
	C359.634247,196.856110 352.292023,196.911942 344.488892,196.892822 
	C345.062073,195.617142 346.096222,194.416397 346.399139,194.064682 
	C351.445374,194.708603 355.784729,195.278900 360.130951,195.790985 
	C360.560181,195.841568 361.281921,195.673294 361.445648,195.374893 
	C363.988220,190.741104 365.239838,193.976990 366.821259,196.498047 
z"/>
<path fill="#FDF2CF" opacity="1.000000" stroke="none" 
	d="
M278.132416,257.034180 
	C275.658752,261.020264 276.477753,264.151062 280.803772,266.699402 
	C278.838501,266.296600 276.642731,265.625092 274.054504,264.864075 
	C273.802917,262.195404 273.943756,259.616302 273.983032,256.687988 
	C276.099365,255.376389 278.317291,254.413925 280.714111,253.963959 
	C280.856934,254.641830 280.820862,254.807205 280.784760,254.972565 
	C280.557648,255.052628 280.367126,255.185272 279.826355,255.572235 
	C279.003815,256.194031 278.568115,256.614105 278.132416,257.034180 
z"/>
<path fill="#EDF8D3" opacity="1.000000" stroke="none" 
	d="
M345.215729,254.863586 
	C347.677338,247.693100 350.503845,240.502289 353.617126,233.110596 
	C352.615723,237.570541 351.570282,242.317917 349.950226,246.860367 
	C348.943939,249.681915 347.066833,252.192886 345.215729,254.863586 
z"/>
<path fill="#DCEBC0" opacity="1.000000" stroke="none" 
	d="
M167.214966,202.732330 
	C166.667297,201.242447 166.379028,199.482681 165.980789,197.051575 
	C159.299561,197.051575 152.606522,197.051575 145.452042,196.961868 
	C148.066055,196.600662 151.139435,196.301910 154.217667,196.066986 
	C156.354675,195.903900 158.563049,196.119583 160.627182,195.660645 
	C167.311447,194.174408 168.417679,195.196457 167.214966,202.732330 
z"/>
<path fill="#EDF8D3" opacity="1.000000" stroke="none" 
	d="
M329.015869,252.378754 
	C327.870270,256.799286 324.812103,256.843872 321.245667,255.390121 
	C320.093445,254.920471 318.963531,254.396042 317.434998,253.979828 
	C317.113220,252.943710 317.179901,251.824448 317.166290,252.053146 
	C321.268158,252.116913 324.928192,252.173798 329.015869,252.378754 
z"/>
<path fill="#FDF2CF" opacity="1.000000" stroke="none" 
	d="
M204.918793,253.696014 
	C203.968887,254.974701 202.293884,255.800934 202.171799,256.814270 
	C201.807129,259.841095 202.051010,262.941254 202.095459,266.468445 
	C201.450699,264.746826 200.783966,262.564209 200.076889,260.394775 
	C199.786530,259.503906 199.409164,258.641449 198.712372,257.596619 
	C198.318481,256.758606 198.283585,256.089966 198.216888,255.154541 
	C199.128174,254.308167 200.527847,253.949692 200.934311,253.110306 
	C202.588120,249.695053 203.718796,250.856689 204.918793,253.696014 
z"/>
<path fill="#FDF2CF" opacity="1.000000" stroke="none" 
	d="
M248.350403,257.061523 
	C248.986038,260.053833 249.135162,263.003265 249.294464,266.379456 
	C247.443192,266.859283 245.581757,266.912323 243.256500,266.913757 
	C245.863037,264.581360 246.736511,261.523621 245.943787,257.465271 
	C246.568008,257.036591 247.215942,257.027618 248.350403,257.061523 
z"/>
<path fill="#DCEBC0" opacity="1.000000" stroke="none" 
	d="
M103.254211,247.226135 
	C112.130943,246.825348 121.243301,246.699783 130.696411,246.323227 
	C130.546600,246.655396 130.077164,247.726334 129.562393,247.748596 
	C121.808586,248.083801 114.049515,248.317581 106.289574,248.462616 
	C105.362648,248.479935 104.423393,247.837830 103.254211,247.226135 
z"/>
<path fill="#BE1B52" opacity="1.000000" stroke="none" 
	d="
M371.008667,257.619720 
	C367.366150,257.940491 363.783966,257.940491 360.188904,257.940491 
	C360.188904,252.380402 360.188904,247.335632 360.594574,242.101303 
	C360.999756,244.373245 360.998352,246.834763 360.998932,249.296265 
	C361.000977,257.504425 362.230804,258.410431 370.631042,256.047699 
	C371.046539,256.432709 371.057770,256.865814 371.008667,257.619720 
z"/>
<path fill="#BE1B52" opacity="1.000000" stroke="none" 
	d="
M444.130737,257.289795 
	C444.014221,256.366760 444.040314,255.872726 444.066925,255.368851 
	C450.163757,257.594574 456.239197,258.218842 462.637451,255.254578 
	C462.164215,256.019501 461.413879,257.873840 460.610779,257.897034 
	C455.171204,258.053833 449.720459,257.823761 444.130737,257.289795 
z"/>
<path fill="#FDF2CF" opacity="1.000000" stroke="none" 
	d="
M165.307434,267.097290 
	C166.142151,265.821533 167.699875,265.061127 168.090256,263.906128 
	C168.816040,261.758911 168.861267,259.381653 169.581116,257.037689 
	C169.975983,259.422760 169.911072,261.872772 169.999512,264.317261 
	C170.124680,267.777374 168.653046,268.775940 165.307434,267.097290 
z"/>
<path fill="#DCEBC0" opacity="1.000000" stroke="none" 
	d="
M196.924271,196.528198 
	C190.671616,196.954315 184.319107,197.026291 177.501862,197.074341 
	C183.632904,196.758301 190.228653,196.466171 196.924271,196.528198 
z"/>
<path fill="#DCEBC0" opacity="1.000000" stroke="none" 
	d="
M144.319824,247.237335 
	C151.052246,246.925491 158.062729,246.920914 165.535385,246.993622 
	C158.864334,247.228806 151.731094,247.386703 144.319824,247.237335 
z"/>
<path fill="#E6A546" opacity="1.000000" stroke="none" 
	d="
M229.794250,254.721619 
	C229.687119,256.858582 229.338776,258.736145 228.735962,260.856140 
	C227.105682,260.631317 225.729889,260.164124 224.545898,259.411102 
	C225.430908,258.400482 226.124146,257.675690 226.817383,256.950928 
	C227.074753,255.401901 226.661713,253.115967 229.794250,254.721619 
z"/>
<path fill="#DCEBC0" opacity="1.000000" stroke="none" 
	d="
M180.310654,225.032639 
	C180.760864,227.034103 181.233932,229.241913 180.836578,231.280014 
	C180.624939,232.365646 178.907700,233.157776 177.452362,234.057007 
	C178.013641,231.077225 178.992584,228.122818 180.310654,225.032639 
z"/>
<path fill="#FDF2CF" opacity="1.000000" stroke="none" 
	d="
M205.162933,266.946442 
	C205.316559,265.297424 205.302475,262.665802 206.269516,262.234650 
	C209.671600,260.717804 211.387741,262.397156 211.093781,266.521545 
	C209.598969,265.482758 208.422363,261.336914 206.033508,266.646667 
	C205.999985,267.000000 206.011917,266.986908 206.011917,266.986908 
	C205.823013,266.982239 205.634094,266.977600 205.162933,266.946442 
z"/>
<path fill="#EDF8D3" opacity="1.000000" stroke="none" 
	d="
M314.786133,257.117096 
	C313.911865,259.259583 312.685333,261.415253 311.191742,263.770233 
	C308.311829,259.748993 312.589020,259.063629 314.786133,257.117096 
z"/>
<path fill="#DCEBC0" opacity="1.000000" stroke="none" 
	d="
M143.097717,238.111389 
	C143.471527,240.500809 143.699692,243.289917 143.996582,246.509216 
	C139.879883,244.633774 142.757324,241.395248 143.097717,238.111389 
z"/>
<path fill="#DCEBC0" opacity="1.000000" stroke="none" 
	d="
M176.420761,209.333450 
	C178.042572,210.182587 179.471024,211.264359 180.783051,212.725586 
	C179.186874,211.925385 177.707138,210.745743 176.420761,209.333450 
z"/>
<path fill="#FDF2CF" opacity="1.000000" stroke="none" 
	d="
M245.022629,255.596100 
	C242.302368,255.332825 239.579086,254.698212 236.437531,254.063065 
	C239.256866,252.610657 242.573715,250.545258 245.022629,255.596100 
z"/>
<path fill="#FDF2CF" opacity="1.000000" stroke="none" 
	d="
M210.572876,256.222961 
	C211.437668,258.480804 210.212982,258.968384 207.981445,259.081177 
	C204.515594,259.256378 205.129715,256.891815 204.959854,254.477142 
	C205.515182,254.575897 206.551758,255.051071 206.607529,255.622101 
	C207.031982,259.966248 208.601089,258.444824 210.572876,256.222961 
z"/>
<path fill="#EDF8D3" opacity="1.000000" stroke="none" 
	d="
M368.328918,208.876007 
	C368.005981,206.759476 368.059296,204.581131 368.448425,202.179855 
	C368.757843,204.242676 368.731506,206.528442 368.328918,208.876007 
z"/>
<path fill="#E6A546" opacity="1.000000" stroke="none" 
	d="
M69.649818,260.963135 
	C70.551537,262.060150 71.255302,263.504669 72.334488,264.960938 
	C72.247353,265.640503 71.908455,266.560608 71.271591,266.872742 
	C70.938377,267.036072 69.637093,266.209503 69.546806,265.694397 
	C69.297401,264.271301 69.455124,262.776825 69.649818,260.963135 
z"/>
<path fill="#FDF2CF" opacity="1.000000" stroke="none" 
	d="
M175.040833,267.400208 
	C176.701035,267.055786 178.434311,267.056824 180.594177,267.132690 
	C179.051804,267.386902 177.082855,267.566284 175.040833,267.400208 
z"/>
<path fill="#DCEBC0" opacity="1.000000" stroke="none" 
	d="
M176.082581,201.023804 
	C176.475403,202.346603 176.595627,203.824020 176.539032,205.717468 
	C176.178131,204.481796 175.994064,202.830093 176.082581,201.023804 
z"/>
<path fill="#FDF2CF" opacity="1.000000" stroke="none" 
	d="
M226.468506,256.929688 
	C226.124146,257.675690 225.430908,258.400482 224.360901,259.090790 
	C223.385010,258.226837 222.785934,257.397400 222.122375,256.266449 
	C223.411819,256.279449 224.765732,256.593964 226.468506,256.929688 
z"/>
<path fill="#DCEBC0" opacity="1.000000" stroke="none" 
	d="
M131.305283,245.847931 
	C130.942505,244.194321 130.841049,242.381760 130.886414,240.287445 
	C131.211029,241.900116 131.388824,243.794540 131.305283,245.847931 
z"/>
<path fill="#DCEBC0" opacity="1.000000" stroke="none" 
	d="
M134.984039,194.460449 
	C133.959167,195.179901 132.844086,195.588745 131.372742,196.007721 
	C131.598312,193.920135 132.204681,191.873428 134.984039,194.460449 
z"/>
<path fill="#EDF8D3" opacity="1.000000" stroke="none" 
	d="
M316.701874,254.080200 
	C316.601562,254.971619 316.143616,255.903809 315.401184,256.980286 
	C315.525879,256.123383 315.935059,255.122177 316.701874,254.080200 
z"/>
<path fill="#E6A546" opacity="1.000000" stroke="none" 
	d="
M281.230591,254.981537 
	C280.820862,254.807205 280.856934,254.641830 280.942871,254.227524 
	C281.429138,253.932159 281.865540,253.885727 282.617065,253.742477 
	C283.845001,253.857559 284.757843,254.069489 285.879974,254.562744 
	C284.618347,254.892899 283.147400,254.941696 281.230591,254.981537 
z"/>
<path fill="#FDF2CF" opacity="1.000000" stroke="none" 
	d="
M205.993393,267.005981 
	C206.490280,267.307129 206.993744,267.602295 207.497223,267.897430 
	C207.321320,268.100281 207.145416,268.303162 206.969513,268.506012 
	C206.675873,268.185333 206.382248,267.864624 206.050262,267.265442 
	C206.011917,266.986908 205.999985,267.000000 205.993393,267.005981 
z"/>
<path fill="#EDF8D3" opacity="1.000000" stroke="none" 
	d="
M365.962402,209.569595 
	C366.136841,209.298126 366.323486,209.243790 366.777222,209.305756 
	C366.851410,209.760849 366.658508,210.099640 366.465607,210.438431 
	C366.301910,210.221191 366.138245,210.003952 365.962402,209.569595 
z"/>
<path fill="#DCEBC0" opacity="1.000000" stroke="none" 
	d="
M169.166351,247.270752 
	C169.439438,247.013657 169.879852,246.949142 170.652466,246.934113 
	C170.434341,247.143494 169.884003,247.303406 169.166351,247.270752 
z"/>
<path fill="#DCEBC0" opacity="1.000000" stroke="none" 
	d="
M130.130646,196.323151 
	C130.148865,196.580078 129.877060,196.813217 129.330048,197.075058 
	C129.316772,196.835632 129.578705,196.567490 130.130646,196.323151 
z"/>
<path fill="#FDF2CF" opacity="1.000000" stroke="none" 
	d="
M234.660599,255.046387 
	C234.904373,255.315887 234.767700,255.595032 234.217224,255.840408 
	C234.043015,255.582245 234.201935,255.332031 234.660599,255.046387 
z"/>
<path fill="#FDF2CF" opacity="1.000000" stroke="none" 
	d="
M189.146988,266.204224 
	C189.347458,266.100891 189.660706,266.252960 190.120789,266.627808 
	C189.931686,266.720306 189.595718,266.589966 189.146988,266.204224 
z"/>
<path fill="#FDF2CF" opacity="1.000000" stroke="none" 
	d="
M197.944763,254.594696 
	C197.722198,254.829163 197.424881,254.716019 197.061523,254.245514 
	C197.285767,254.021332 197.577255,254.140991 197.944763,254.594696 
z"/>
<path fill="#FDF2CF" opacity="1.000000" stroke="none" 
	d="
M203.093460,267.302612 
	C203.166901,267.118408 203.335266,267.078979 203.755798,267.099915 
	C203.734772,267.255951 203.461578,267.351654 203.093460,267.302612 
z"/>
<path fill="#EDF8D3" opacity="1.000000" stroke="none" 
	d="
M329.818420,251.171875 
	C330.005341,251.355392 329.958557,251.680984 329.719879,252.168686 
	C329.546906,251.991837 329.565796,251.652893 329.818420,251.171875 
z"/>
<path fill="#F5950A" opacity="1.000000" stroke="none" 
	d="
M409.100494,178.309738 
	C408.975708,176.979446 409.353027,175.845352 409.092743,174.883881 
	C408.277588,171.872574 407.222015,168.926361 406.259613,165.954941 
	C406.895264,165.532471 407.530945,165.110016 408.166595,164.687546 
	C416.401581,169.566483 424.637390,174.443954 432.870209,179.326538 
	C433.709747,179.824448 434.580475,180.288803 435.350555,180.880829 
	C436.906128,182.076660 438.402466,183.349548 439.923248,184.590637 
	C438.326477,185.872238 436.870575,187.405685 435.108215,188.391220 
	C428.047913,192.339447 420.886719,196.106949 413.776459,199.966446 
	C412.021881,200.918854 410.318634,201.965958 408.399414,203.081314 
	C405.280609,197.908081 407.922699,194.279831 409.817688,190.170120 
	C412.234131,188.009644 414.681946,186.231308 417.838379,183.938187 
	C414.503540,181.844696 411.907196,180.214798 409.100494,178.309738 
z"/>
<path fill="#FBE2EF" opacity="1.000000" stroke="none" 
	d="
M422.482178,233.494507 
	C426.968903,233.083328 428.076599,236.218063 427.934540,239.138870 
	C427.760406,242.720703 426.406586,246.245193 425.562775,249.794464 
	C423.810913,249.040848 421.074707,248.739594 420.483307,247.452682 
	C418.312469,242.728928 418.035004,237.835190 422.482178,233.494507 
z"/>
<path fill="#FFFFFE" opacity="1.000000" stroke="none" 
	d="
M106.669228,260.180237 
	C107.163811,259.913086 107.713402,259.989655 108.236588,260.151581 
	C108.308434,260.173828 108.248993,260.620270 108.250336,260.870331 
	C107.738861,260.763855 107.227379,260.657410 106.669228,260.180237 
z"/>
<path fill="#E6A546" opacity="1.000000" stroke="none" 
	d="
M282.465240,256.859558 
	C283.320892,256.341278 284.593292,255.829910 286.125977,255.046692 
	C287.145966,255.134247 287.905640,255.493683 288.665344,255.853104 
	C288.612793,256.190887 288.560242,256.528656 288.507690,256.866425 
	C286.632446,256.866425 284.757202,256.866425 282.465240,256.859558 
z"/>
<path fill="#FFFFFE" opacity="1.000000" stroke="none" 
	d="
M289.457092,260.978638 
	C289.114655,260.971130 288.921509,260.616943 288.865112,260.423279 
	C289.385529,259.627991 289.962341,259.026398 290.539154,258.424805 
	C290.908875,258.910339 291.278595,259.395844 291.648285,259.881348 
	C291.032043,260.249634 290.415802,260.617889 289.457092,260.978638 
z"/>
<path fill="#72A01D" opacity="1.000000" stroke="none" 
	d="
M247.602264,184.979889 
	C246.535965,178.331299 251.137863,172.943085 256.571747,174.460373 
	C258.960724,175.127457 262.128845,177.126083 262.697968,179.151138 
	C263.418610,181.715225 262.793274,185.838730 261.046570,187.632370 
	C258.559570,190.186203 254.411407,190.392410 250.923828,188.399475 
	C249.700150,187.700226 248.843781,186.358200 247.602264,184.979889 
z"/>
<path fill="#FFFFFE" opacity="1.000000" stroke="none" 
	d="
M50.049068,258.629700 
	C49.089161,258.624725 48.161514,258.243622 47.233864,257.862518 
	C47.918186,257.242218 48.602512,256.621948 49.661125,255.996033 
	C50.050720,256.744812 50.066025,257.499176 50.049068,258.629700 
z"/>
<path fill="#F7FCE9" opacity="1.000000" stroke="none" 
	d="
M136.780930,262.517029 
	C134.756760,262.857880 132.773788,263.173615 131.120285,262.576691 
	C130.585709,262.383698 130.404968,259.518524 131.014572,258.390167 
	C131.491409,257.507568 134.315750,256.749359 134.580093,257.095245 
	C135.682297,258.537415 136.211014,260.417847 136.780930,262.517029 
z"/>
<path fill="#F7FCE9" opacity="1.000000" stroke="none" 
	d="
M265.114838,263.002197 
	C265.268555,260.868439 265.317963,258.824585 266.251434,257.334656 
	C266.567261,256.830597 269.611786,257.237946 270.502899,258.132111 
	C271.287964,258.919891 271.348633,261.961395 270.784546,262.267609 
	C269.241516,263.105347 267.200256,263.025391 265.114838,263.002197 
z"/>
<path fill="#E6A337" opacity="1.000000" stroke="none" 
	d="
M39.042381,266.958435 
	C39.052628,264.113159 39.139484,261.300262 38.955780,258.505127 
	C38.747482,255.335770 39.997471,254.235306 42.858250,255.100922 
	C42.631924,257.728058 42.626652,260.349182 42.104652,262.863007 
	C41.804260,264.309662 40.667477,265.582581 39.494774,266.924072 
	C39.082355,266.914398 38.999523,266.998627 39.042381,266.958435 
z"/>
<path fill="#F7FCE9" opacity="1.000000" stroke="none" 
	d="
M243.016296,260.902161 
	C240.863022,263.268829 238.521347,265.682007 236.169617,262.062744 
	C235.587509,261.166901 236.776566,257.899567 237.930649,257.345551 
	C240.477722,256.122772 242.840836,256.993225 243.016296,260.902161 
z"/>
<path fill="#E6A546" opacity="1.000000" stroke="none" 
	d="
M278.443420,256.985870 
	C278.568115,256.614105 279.003815,256.194031 279.755157,255.733215 
	C279.632019,256.107513 279.193207,256.522522 278.443420,256.985870 
z"/>
</svg>